<svg width="12" height="7" viewBox="0 0 12 7" fill="none" xmlns="http://www.w3.org/2000/svg">
<path d="M6 4.7279L10.4533 0.274651C10.5362 0.188726 10.6355 0.120189 10.7453 0.0730394C10.855 0.0258899 10.9731 0.00107199 11.0925 3.39677e-05C11.212 -0.00100406 11.3305 0.0217585 11.441 0.0669935C11.5516 0.112229 11.652 0.17903 11.7365 0.2635C11.821 0.347971 11.8878 0.448418 11.933 0.558981C11.9782 0.669544 12.001 0.788009 12 0.907464C11.9989 1.02692 11.9741 1.14497 11.927 1.25473C11.8798 1.36449 11.8113 1.46376 11.7254 1.54675L6.63605 6.63605C6.46734 6.80471 6.23856 6.89946 6 6.89946C5.76145 6.89946 5.53266 6.80471 5.36395 6.63605L0.274651 1.54675C0.188726 1.46376 0.120189 1.36449 0.0730394 1.25473C0.0258898 1.14497 0.00107199 1.02692 3.39677e-05 0.907464C-0.00100406 0.788009 0.0217585 0.669544 0.0669935 0.558981C0.112229 0.448418 0.17903 0.347971 0.2635 0.2635C0.347971 0.17903 0.448418 0.112229 0.558981 0.0669935C0.669544 0.0217585 0.788009 -0.00100406 0.907464 3.39677e-05C1.02692 0.00107199 1.14497 0.0258899 1.25473 0.0730394C1.36449 0.120189 1.46376 0.188726 1.54675 0.274651L6 4.7279Z" fill="#1C5E59"/>
</svg>
