<svg width="14" height="14" viewBox="0 0 14 14" fill="none" xmlns="http://www.w3.org/2000/svg">
<path fill-rule="evenodd" clip-rule="evenodd" d="M9.6075 14V8.5785H11.4275L11.6998 6.4659H9.6068V5.117C9.6068 4.5052 9.7769 4.088 10.6547 4.088H11.7733V2.198C11.2316 2.1398 10.6871 2.11175 10.1423 2.114C8.5295 2.114 7.4256 3.0989 7.4256 4.907V6.4659H5.6V8.5785H7.4249V14H0.7728C0.3458 14 0 13.6542 0 13.2272V0.7728C0 0.3458 0.3458 0 0.7728 0H13.2272C13.6542 0 14 0.3458 14 0.7728V13.2272C14 13.6542 13.6542 14 13.2272 14H9.6075Z" fill="#0D2B29"/>
</svg>
