<svg width="14" height="14" viewBox="0 0 14 14" fill="none" xmlns="http://www.w3.org/2000/svg">
<path d="M7.71961 0C8.50707 0.00209995 8.90675 0.00629985 9.25183 0.0160996L9.38762 0.0209995C9.54442 0.0265993 9.69911 0.0335991 9.886 0.0419989C10.6308 0.0769981 11.1389 0.194595 11.5848 0.367491C12.0468 0.545287 12.436 0.786081 12.8252 1.17457C13.1812 1.52438 13.4566 1.94768 13.6322 2.41494C13.8051 2.86083 13.9227 3.36902 13.9577 4.1145C13.9661 4.3007 13.9731 4.45539 13.9787 4.61289L13.9829 4.74869C13.9934 5.09308 13.9976 5.49277 13.999 6.28025L13.9997 6.80244V7.71941C14.0014 8.22998 13.996 8.74055 13.9836 9.25098L13.9794 9.38677C13.9738 9.54427 13.9668 9.69897 13.9584 9.88516C13.9234 10.6306 13.8044 11.1381 13.6322 11.5847C13.4566 12.052 13.1812 12.4753 12.8252 12.8251C12.4754 13.1812 12.0521 13.4566 11.5848 13.6322C11.1389 13.8051 10.6308 13.9227 9.886 13.9577L9.38762 13.9787L9.25183 13.9829C8.90675 13.9927 8.50707 13.9976 7.71961 13.999L7.19743 13.9997H6.28118C5.77039 14.0015 5.2596 13.9961 4.74896 13.9836L4.61317 13.9794C4.447 13.9731 4.28087 13.9658 4.11479 13.9577C3.37003 13.9227 2.86185 13.8051 2.41528 13.6322C1.94828 13.4565 1.52523 13.1811 1.17564 12.8251C0.819318 12.4754 0.543647 12.052 0.36788 11.5847C0.194988 11.1388 0.0773942 10.6306 0.042396 9.88516L0.0213971 9.38677L0.0178973 9.25098C0.0049942 8.74056 -0.000839464 8.22999 0.000398138 7.71941V6.28025C-0.00153929 5.76968 0.00359433 5.25911 0.0157974 4.74869L0.0206971 4.61289C0.0262969 4.45539 0.0332965 4.3007 0.0416961 4.1145C0.0766943 3.36902 0.194288 2.86153 0.36718 2.41494C0.543357 1.94749 0.819513 1.52417 1.17634 1.17457C1.52573 0.818664 1.94853 0.543238 2.41528 0.367491C2.86185 0.194595 3.36933 0.0769981 4.11479 0.0419989C4.30098 0.0335991 4.45637 0.0265993 4.61317 0.0209995L4.74896 0.0167995C5.25937 0.00436279 5.76992 -0.00100426 6.28048 0.000699932L7.71961 0ZM7.00004 3.49992C6.07183 3.49992 5.18164 3.86866 4.5253 4.52502C3.86895 5.18138 3.50022 6.0716 3.50022 6.99983C3.50022 7.92807 3.86895 8.81828 4.5253 9.47464C5.18164 10.131 6.07183 10.4997 7.00004 10.4997C7.92826 10.4997 8.81845 10.131 9.47479 9.47464C10.1311 8.81828 10.4999 7.92807 10.4999 6.99983C10.4999 6.0716 10.1311 5.18138 9.47479 4.52502C8.81845 3.86866 7.92826 3.49992 7.00004 3.49992ZM7.00004 4.89988C7.27581 4.89984 7.54888 4.95411 7.80367 5.0596C8.05845 5.16509 8.28997 5.31973 8.485 5.5147C8.68002 5.70966 8.83474 5.94113 8.94031 6.19589C9.04588 6.45065 9.10024 6.72371 9.10029 6.99948C9.10034 7.27525 9.04607 7.54833 8.94058 7.80312C8.83509 8.05792 8.68045 8.28944 8.48549 8.48447C8.29053 8.6795 8.05907 8.83422 7.80431 8.9398C7.54956 9.04537 7.27651 9.09973 7.00075 9.09978C6.44382 9.09978 5.9097 8.87854 5.5159 8.48472C5.12209 8.0909 4.90085 7.55677 4.90085 6.99983C4.90085 6.44289 5.12209 5.90876 5.5159 5.51494C5.9097 5.12113 6.44382 4.89988 7.00075 4.89988M10.6756 2.44994C10.4435 2.44994 10.221 2.54213 10.0569 2.70622C9.89279 2.87031 9.8006 3.09286 9.8006 3.32492C9.8006 3.55698 9.89279 3.77953 10.0569 3.94362C10.221 4.10771 10.4435 4.1999 10.6756 4.1999C10.9076 4.1999 11.1302 4.10771 11.2942 3.94362C11.4583 3.77953 11.5505 3.55698 11.5505 3.32492C11.5505 3.09286 11.4583 2.87031 11.2942 2.70622C11.1302 2.54213 10.9076 2.44994 10.6756 2.44994Z" fill="#0D2B29"/>
</svg>
