<svg width="21" height="20" viewBox="0 0 21 20" fill="none" xmlns="http://www.w3.org/2000/svg">
<path d="M10.0927 14.6733C10.2057 14.7378 10.3336 14.7718 10.4637 14.7718C10.5938 14.7718 10.7217 14.7378 10.8347 14.6733C11.0636 14.5415 16.4417 11.4025 16.4417 5.8001C16.3948 4.24629 15.7446 2.77183 14.6292 1.68913C13.5137 0.606445 12.0205 0.000607975 10.466 4.57342e-07C8.91144 -0.000607061 7.41776 0.604062 6.30143 1.68588C5.1851 2.7677 4.53383 4.24166 4.48564 5.79543C4.48564 11.4025 9.86654 14.5368 10.0927 14.6733ZM10.4665 3.55261C10.9101 3.55261 11.3437 3.68415 11.7125 3.93059C12.0814 4.17703 12.3688 4.52732 12.5386 4.93714C12.7083 5.34696 12.7528 5.79792 12.6662 6.23298C12.5797 6.66804 12.3661 7.06768 12.0524 7.38134C11.7387 7.695 11.3391 7.90861 10.904 7.99515C10.469 8.08169 10.018 8.03728 9.6082 7.86752C9.19838 7.69777 8.8481 7.4103 8.60166 7.04147C8.35521 6.67264 8.22367 6.23902 8.22367 5.79543C8.22367 5.20059 8.45997 4.63012 8.88058 4.20951C9.30119 3.7889 9.87166 3.55261 10.4665 3.55261ZM20.933 15.5143C20.933 18.4281 15.5399 20 10.4665 20C5.39305 20 0 18.4281 0 15.5143C0 14.1509 1.23542 12.9435 3.47917 12.1155C3.66318 12.0547 3.8636 12.0678 4.03818 12.1519C4.21276 12.236 4.34786 12.3846 4.415 12.5664C4.48213 12.7481 4.47606 12.9489 4.39807 13.1263C4.32007 13.3037 4.17623 13.4439 3.99689 13.5173C2.45402 14.0883 1.49521 14.8527 1.49521 15.5143C1.49521 16.7628 4.90804 18.5047 10.4665 18.5047C16.0249 18.5047 19.4378 16.7628 19.4378 15.5143C19.4378 14.8527 18.479 14.0883 16.9361 13.5182C16.7568 13.4448 16.6129 13.3046 16.5349 13.1272C16.4569 12.9498 16.4509 12.7491 16.518 12.5673C16.5851 12.3855 16.7202 12.2369 16.8948 12.1528C17.0694 12.0687 17.2698 12.0557 17.4538 12.1164C19.6976 12.9435 20.933 14.1509 20.933 15.5143Z" fill="#EC5E39"/>
</svg>
