<svg width="24" height="18" viewBox="0 0 24 18" fill="none" xmlns="http://www.w3.org/2000/svg">
<g clip-path="url(#clip0_635_7225)">
<path d="M0.820439 5.38639L0.818047 5.38605C0.520531 5.33709 0.234973 5.52465 0.162088 5.81751C0.0888718 6.11111 0.254041 6.41155 0.541193 6.50709L8.63687 9.20069L5.94387 10.2731C5.74827 10.351 5.62855 10.5498 5.65127 10.759C5.67386 10.9684 5.83338 11.1369 6.04127 11.1712L7.80657 11.4617C7.85727 11.47 7.90896 11.47 7.95965 11.4616L14.6684 10.3457L21.1299 11.3982C23.5999 11.7665 23.9417 10.8847 23.9876 10.6056C24.0233 10.3892 23.9987 10.0449 23.6793 9.63381C23.3554 9.21663 22.7977 8.81341 21.975 8.40115C21.7002 8.26349 21.5694 8.15984 21.431 8.05009C20.9437 7.66427 20.5811 7.44508 18.2545 7.06206L5.52822 4.96748L3.35471 0.464333C3.27273 0.294513 3.11327 0.175254 2.92711 0.144625L2.09548 0.00769298C1.92427 -0.0204775 1.74946 0.0295517 1.61924 0.144094C1.48889 0.258636 1.41673 0.425532 1.42271 0.598873L1.59047 5.51627L0.820439 5.38639Z" fill="#0ABAB5"/>
<path d="M22.7693 15.0208H1.10316C0.493913 15.0208 0 15.5146 0 16.1239C0 16.7331 0.493913 17.2271 1.10316 17.2271H22.7693C23.3786 17.2271 23.8726 16.733 23.8726 16.1239C23.8726 15.5148 23.3786 15.0208 22.7693 15.0208Z" fill="#0ABAB5"/>
</g>
<defs>
<clipPath id="clip0_635_7225">
<rect width="24" height="18" fill="white"/>
</clipPath>
</defs>
</svg>
