<svg width="24" height="17" viewBox="0 0 24 17" fill="none" xmlns="http://www.w3.org/2000/svg">
<path d="M2.4431 10.0997C2.44246 10.1 2.44175 10.1003 2.44104 10.1007C2.18099 10.2359 2.06805 10.5482 2.18177 10.8184C2.29581 11.0896 2.59925 11.2272 2.87835 11.1343L10.7469 8.51638L9.27562 10.9191C9.16874 11.0936 9.19134 11.318 9.33089 11.4678C9.47044 11.6174 9.69271 11.6558 9.87443 11.5613L11.4174 10.7596C11.4617 10.7366 11.5019 10.7064 11.5365 10.6702L16.1075 5.89544L21.7487 2.95194C23.8852 1.80023 23.6377 0.914899 23.511 0.67106C23.4128 0.481982 23.1931 0.228458 22.7051 0.0943981C22.2102 -0.0415986 21.5414 -0.0307499 20.6611 0.12759C20.3672 0.180413 20.205 0.175957 20.0332 0.171243C19.4294 0.154712 19.0198 0.195201 16.986 1.25198L5.86272 7.03249L1.54905 4.79378C1.38638 4.70938 1.19285 4.70944 1.03018 4.79403L0.303318 5.1718C0.153696 5.24955 0.0468228 5.39026 0.012081 5.55525C-0.0226608 5.72031 0.0184094 5.89221 0.123926 6.02362L3.11792 9.75281L2.4431 10.0997Z" fill="#B6EAE9"/>
<path d="M22.9278 14.6298H1.86934C1.27718 14.6298 0.797119 15.11 0.797119 15.702C0.797119 16.2941 1.27718 16.7743 1.86934 16.7743H22.9278C23.5199 16.7743 24 16.2942 24 15.702C23.9999 15.1098 23.5199 14.6298 22.9278 14.6298Z" fill="#B6EAE9"/>
</svg>
