<svg width="74" height="26" viewBox="0 0 74 26" fill="none" xmlns="http://www.w3.org/2000/svg">
<g clip-path="url(#clip0_638_7276)">
<path d="M3.74437 1.39087L0.0147705 9.82039H2.44197L3.13017 8.13161H7.13357L7.82177 9.82039H10.3082L6.57857 1.39087H3.74437ZM5.12817 3.34554L6.34917 6.29192H3.90717L5.12817 3.34554Z" fill="#1C5E59"/>
<path d="M10.5598 9.81331V1.38379L14.0156 1.39816L16.021 6.831L17.982 1.38379H21.4082V9.81331H19.24V3.60435L16.9386 9.81331H15.0368L12.728 3.60435V9.81331H10.5598Z" fill="#1C5E59"/>
<path d="M22.8956 9.81331V1.38379H29.9774V3.2666H25.0934V4.71105H29.859V6.48606H25.086V7.98081H29.97V9.81331H22.8956Z" fill="#1C5E59"/>
<path d="M31.228 1.39087V9.82039H33.3962V6.82371H34.3064L36.9112 9.82039H39.5604L36.704 6.71591C37.8732 6.62249 39.0868 5.64516 39.0868 4.12885C39.0868 2.35383 37.6512 1.39805 36.0528 1.39805L31.228 1.39087ZM33.3962 3.27368H35.8752C36.4672 3.27368 36.9038 3.72641 36.9038 4.15759C36.9038 4.71812 36.3414 5.0415 35.9048 5.0415H33.3962V3.27368Z" fill="#1C5E59"/>
<path d="M42.1874 9.81331H39.9748V1.38379H42.1874V9.81331Z" fill="#1C5E59"/>
<path d="M47.4414 9.8132H46.9604C44.6442 9.8132 43.2456 8.04538 43.2456 5.63797C43.2456 3.17307 44.6368 1.39087 47.5524 1.39087H49.95V3.38866H47.471C46.287 3.38866 45.4434 4.28694 45.4434 5.65952C45.4434 7.29081 46.4054 7.97351 47.7818 7.97351H48.3516L47.4414 9.8132Z" fill="#1C5E59"/>
<path d="M52.1626 1.39098L48.433 9.81331H50.8602L51.5484 8.12453H55.5518L56.24 9.81331H58.719L54.9894 1.38379L52.1626 1.39098ZM53.539 3.34565L54.76 6.29203H52.318L53.539 3.34565Z" fill="#1C5E59"/>
<path d="M58.9706 9.81331V1.38379H61.7308L65.2532 6.68009V1.38379H67.4214V9.81331H64.75L61.1388 4.38048V9.81331H58.9706Z" fill="#1C5E59"/>
<path d="M15.8138 24.5596V16.1301H22.8956V18.0129H18.0116V19.4574H22.7846V21.2324H18.0116V22.7271H22.8956V24.5596H15.8138Z" fill="#1C5E59"/>
<path d="M50.4976 24.5596V16.1301H57.5794V18.0129H52.6954V19.4574H57.4462V21.2324H52.6954V22.7271H57.5794V24.5596H50.4976Z" fill="#1C5E59"/>
<path d="M23.1694 24.5596L26.6178 20.3988L23.088 16.1301H25.8186L27.9202 18.7675L30.0292 16.1301H32.6562L29.1708 20.3413L32.6266 24.5525H29.896L27.8536 21.9582L25.863 24.5525L23.1694 24.5596Z" fill="#1C5E59"/>
<path d="M32.8856 16.1372V24.5667H35.113V21.9078H37.3996C39.331 21.9078 40.7962 20.9089 40.7962 18.9758C40.7962 17.3732 39.6492 16.1444 37.6808 16.1444H32.8856V16.1372ZM35.113 18.0416H37.518C38.1396 18.0416 38.591 18.4153 38.591 19.0117C38.591 19.5723 38.147 19.9819 37.5106 19.9819H35.113V18.0416Z" fill="#1C5E59"/>
<path d="M41.7286 16.1301V24.5596H43.8968V21.563H44.807L47.4118 24.5596H50.061L47.2046 21.4552C48.3738 21.3617 49.5874 20.3844 49.5874 18.8681C49.5874 17.0931 48.1518 16.1373 46.5534 16.1373L41.7286 16.1301ZM43.9042 18.0201H46.3832C46.9752 18.0201 47.4118 18.4729 47.4118 18.904C47.4118 19.4646 46.8494 19.7879 46.4128 19.7879H43.9042V18.0201Z" fill="#1C5E59"/>
<path d="M58.5858 24.5595V22.727H62.9296C63.5734 22.727 63.8471 22.3893 63.8471 22.0228C63.8471 21.6707 63.5734 21.3113 62.9296 21.3113H60.9686C59.2666 21.3113 58.312 20.3053 58.312 18.789C58.312 17.4379 59.1852 16.1372 61.716 16.1372H65.9413L65.0311 18.0344H61.3756C60.68 18.0344 60.4653 18.3937 60.4653 18.7315C60.4653 19.0836 60.7318 19.4645 61.2646 19.4645H63.3218C65.2236 19.4645 66.045 20.5137 66.045 21.8862C66.045 23.3594 65.1273 24.5667 63.2181 24.5667H58.5858V24.5595Z" fill="#1C5E59"/>
<path d="M66.5482 24.5595V22.727H70.892C71.5358 22.727 71.8096 22.3893 71.8096 22.0228C71.8096 21.6707 71.5358 21.3113 70.892 21.3113H68.931C67.229 21.3113 66.2744 20.3053 66.2744 18.789C66.2744 17.4379 67.1476 16.1372 69.6784 16.1372H73.9038L72.9936 18.0344H69.338C68.6424 18.0344 68.4278 18.3937 68.4278 18.7315C68.4278 19.0836 68.6942 19.4645 69.227 19.4645H71.2842C73.186 19.4645 74.0074 20.5137 74.0074 21.8862C74.0074 23.3594 73.0898 24.5667 71.1806 24.5667H66.5482V24.5595Z" fill="#1C5E59"/>
</g>
<defs>
<clipPath id="clip0_638_7276">
<rect width="74" height="26" fill="white"/>
</clipPath>
</defs>
</svg>
