<svg width="20" height="20" viewBox="0 0 20 20" fill="none" xmlns="http://www.w3.org/2000/svg">
<path d="M6.45826 2.08331C6.45826 1.91755 6.39241 1.75858 6.2752 1.64137C6.15799 1.52416 5.99902 1.45831 5.83326 1.45831C5.6675 1.45831 5.50852 1.52416 5.39131 1.64137C5.2741 1.75858 5.20826 1.91755 5.20826 2.08331V3.39998C4.00826 3.49581 3.22159 3.73081 2.64326 4.30998C2.06409 4.88831 1.82909 5.67581 1.73242 6.87498H18.2674C18.1708 5.67498 17.9358 4.88831 17.3566 4.30998C16.7783 3.73081 15.9908 3.49581 14.7916 3.39915V2.08331C14.7916 1.91755 14.7257 1.75858 14.6085 1.64137C14.4913 1.52416 14.3323 1.45831 14.1666 1.45831C14.0008 1.45831 13.8419 1.52416 13.7246 1.64137C13.6074 1.75858 13.5416 1.91755 13.5416 2.08331V3.34415C12.9874 3.33331 12.3658 3.33331 11.6666 3.33331H8.33326C7.63409 3.33331 7.01242 3.33331 6.45826 3.34415V2.08331Z" fill="#B6EAE9"/>
<path fill-rule="evenodd" clip-rule="evenodd" d="M1.66675 10C1.66675 9.30083 1.66675 8.67917 1.67758 8.125H18.3226C18.3334 8.67917 18.3334 9.30083 18.3334 10V11.6667C18.3334 14.8092 18.3334 16.3808 17.3567 17.3567C16.3801 18.3325 14.8092 18.3333 11.6667 18.3333H8.33341C5.19091 18.3333 3.61925 18.3333 2.64341 17.3567C1.66758 16.38 1.66675 14.8092 1.66675 11.6667V10ZM14.1667 11.6667C14.3878 11.6667 14.5997 11.5789 14.756 11.4226C14.9123 11.2663 15.0001 11.0543 15.0001 10.8333C15.0001 10.6123 14.9123 10.4004 14.756 10.2441C14.5997 10.0878 14.3878 10 14.1667 10C13.9457 10 13.7338 10.0878 13.5775 10.2441C13.4212 10.4004 13.3334 10.6123 13.3334 10.8333C13.3334 11.0543 13.4212 11.2663 13.5775 11.4226C13.7338 11.5789 13.9457 11.6667 14.1667 11.6667ZM14.1667 15C14.3878 15 14.5997 14.9122 14.756 14.7559C14.9123 14.5996 15.0001 14.3877 15.0001 14.1667C15.0001 13.9457 14.9123 13.7337 14.756 13.5774C14.5997 13.4211 14.3878 13.3333 14.1667 13.3333C13.9457 13.3333 13.7338 13.4211 13.5775 13.5774C13.4212 13.7337 13.3334 13.9457 13.3334 14.1667C13.3334 14.3877 13.4212 14.5996 13.5775 14.7559C13.7338 14.9122 13.9457 15 14.1667 15ZM10.8334 10.8333C10.8334 11.0543 10.7456 11.2663 10.5893 11.4226C10.4331 11.5789 10.2211 11.6667 10.0001 11.6667C9.77907 11.6667 9.56711 11.5789 9.41083 11.4226C9.25455 11.2663 9.16675 11.0543 9.16675 10.8333C9.16675 10.6123 9.25455 10.4004 9.41083 10.2441C9.56711 10.0878 9.77907 10 10.0001 10C10.2211 10 10.4331 10.0878 10.5893 10.2441C10.7456 10.4004 10.8334 10.6123 10.8334 10.8333ZM10.8334 14.1667C10.8334 14.3877 10.7456 14.5996 10.5893 14.7559C10.4331 14.9122 10.2211 15 10.0001 15C9.77907 15 9.56711 14.9122 9.41083 14.7559C9.25455 14.5996 9.16675 14.3877 9.16675 14.1667C9.16675 13.9457 9.25455 13.7337 9.41083 13.5774C9.56711 13.4211 9.77907 13.3333 10.0001 13.3333C10.2211 13.3333 10.4331 13.4211 10.5893 13.5774C10.7456 13.7337 10.8334 13.9457 10.8334 14.1667ZM5.83341 11.6667C6.05443 11.6667 6.26639 11.5789 6.42267 11.4226C6.57895 11.2663 6.66675 11.0543 6.66675 10.8333C6.66675 10.6123 6.57895 10.4004 6.42267 10.2441C6.26639 10.0878 6.05443 10 5.83341 10C5.6124 10 5.40044 10.0878 5.24416 10.2441C5.08788 10.4004 5.00008 10.6123 5.00008 10.8333C5.00008 11.0543 5.08788 11.2663 5.24416 11.4226C5.40044 11.5789 5.6124 11.6667 5.83341 11.6667ZM5.83341 15C6.05443 15 6.26639 14.9122 6.42267 14.7559C6.57895 14.5996 6.66675 14.3877 6.66675 14.1667C6.66675 13.9457 6.57895 13.7337 6.42267 13.5774C6.26639 13.4211 6.05443 13.3333 5.83341 13.3333C5.6124 13.3333 5.40044 13.4211 5.24416 13.5774C5.08788 13.7337 5.00008 13.9457 5.00008 14.1667C5.00008 14.3877 5.08788 14.5996 5.24416 14.7559C5.40044 14.9122 5.6124 15 5.83341 15Z" fill="#B6EAE9"/>
</svg>
