<svg width="90" height="16" viewBox="0 0 90 16" fill="none" xmlns="http://www.w3.org/2000/svg">
<g clip-path="url(#clip0_638_7262)">
<path d="M0 0.752197H3.91607C8.30353 0.752197 12.1778 2.24288 12.1778 7.97647C12.1778 13.7128 8.30353 15.2035 3.91607 15.2035H0V0.752197Z" fill="#1C5E59"/>
<path d="M13.3242 0.752353H16.1943V15.2037H13.3242V0.752353ZM25.4461 4.56739C24.4588 3.95731 23.3961 3.31135 22.272 3.17057C21.2428 3.04082 20.1466 3.34724 20.1466 4.79099C20.1466 7.29754 26.4196 6.24026 26.4196 11.085C26.4196 14.2513 23.9204 15.7723 21.0475 15.4549C19.4911 15.281 18.5902 14.8144 17.349 13.9863V11.0546C18.3336 11.5929 19.7756 12.5895 20.8858 12.7882C22.1046 13.0035 23.4267 12.6171 23.4267 11.3113C23.4267 8.55634 17.1538 9.69643 17.1538 4.91521C17.1538 1.68541 19.6362 0.503906 22.1549 0.503906C23.3849 0.503906 24.4866 0.970434 25.4461 1.79859V4.56739ZM46.0251 0.503906C50.5157 0.503906 53.4277 3.56808 53.4277 7.93798C53.4277 12.3051 50.5548 15.4549 46.0251 15.4549C41.434 15.4549 38.4914 12.3686 38.4914 7.93798C38.4914 3.50459 41.4758 0.503906 46.0251 0.503906ZM52.4598 0.752353H55.5335L58.7216 8.38795L61.6977 0.752353H64.6766L59.0731 15.2037H58.0327L52.4598 0.752353ZM65.4241 0.752353H73.8699V3.02978H68.2943V6.59085H73.3985V8.86828H68.2943V12.9262H73.9118V15.2037H65.4241V0.752353ZM74.676 0.752353H77.772C80.8486 0.752353 84.5164 0.647453 84.5164 4.66401C84.5164 6.36172 83.3895 7.76959 81.5626 8.01804V8.05944C82.3408 8.12017 82.7927 8.90968 83.0799 9.55012L85.3755 15.2009H82.179L80.4581 10.6902C80.0481 9.61362 79.6799 9.19954 78.4693 9.19954H77.5461V15.2037H74.676V0.752353Z" fill="#1C5E59"/>
<path d="M77.5461 6.92195H78.4888C79.903 6.92195 81.5235 6.71491 81.5235 4.91229C81.5235 3.17316 79.9253 3.02686 78.4888 3.02686H77.5461V6.92195Z" fill="white"/>
<path d="M37.7661 13.7599C37.0688 14.6543 35.3283 15.2036 34.1541 15.2865C29.7053 15.5956 26.7152 13.125 26.7152 8.23885C26.7152 3.29201 29.3203 0.423829 34.1736 0.647431C35.1164 0.691599 36.6588 1.0063 37.702 1.85102V4.63914C36.4859 3.88828 35.2251 3.3555 34.1569 3.31133C31.2059 3.19263 29.7081 5.07254 29.7081 8.03182C29.7081 10.9718 31.1055 12.6253 34.1597 12.5121C35.3311 12.468 37.1302 11.5156 37.7633 10.9911V13.7599H37.7661Z" fill="#1C5E59"/>
<path d="M88.7421 3.18432C89.4368 3.18432 90 2.62692 90 1.93933C90 1.25174 89.4368 0.694336 88.7421 0.694336C88.0473 0.694336 87.4841 1.25174 87.4841 1.93933C87.4841 2.62692 88.0473 3.18432 88.7421 3.18432Z" fill="#1C5E59"/>
<path d="M89.6932 1.9394C89.6932 1.35693 89.2692 0.93457 88.7421 0.93457C88.2149 0.93457 87.791 1.35417 87.791 1.9394C87.791 2.52187 88.2149 2.94147 88.7421 2.94147C89.2665 2.94147 89.6932 2.51911 89.6932 1.9394Z" fill="white"/>
<path d="M88.2568 1.22705H88.7867C89.1298 1.22705 89.3111 1.34299 89.3111 1.64113C89.3111 1.88129 89.1716 2 88.9401 2.01932L89.3222 2.63768H89.0517L88.6807 2.03036H88.5189V2.63768H88.254L88.2568 1.22705Z" fill="#1C5E59"/>
<path d="M88.5217 1.8315H88.756C88.9122 1.8315 89.0489 1.80942 89.0489 1.6217C89.0489 1.45331 88.8955 1.42847 88.7588 1.42847H88.5217V1.8315Z" fill="white"/>
</g>
<defs>
<clipPath id="clip0_638_7262">
<rect width="90" height="15" fill="white" transform="translate(0 0.5)"/>
</clipPath>
</defs>
</svg>
