<svg width="19" height="18" viewBox="0 0 19 18" fill="none" xmlns="http://www.w3.org/2000/svg">
<path d="M4.97331 2.35205C4.46452 2.48832 4.00056 2.75615 3.62811 3.1286C3.25566 3.50105 2.98783 3.965 2.85156 4.4738M14.0258 2.35205C14.5346 2.48832 14.9986 2.75615 15.371 3.1286C15.7435 3.50105 16.0113 3.965 16.1476 4.4738" stroke="#0ABAB5" stroke-width="2" stroke-linecap="round"/>
<path fill-rule="evenodd" clip-rule="evenodd" d="M9.5 15C11.0913 15 12.6174 14.3679 13.7426 13.2426C14.8679 12.1174 15.5 10.5913 15.5 9C15.5 7.4087 14.8679 5.88258 13.7426 4.75736C12.6174 3.63214 11.0913 3 9.5 3C7.9087 3 6.38258 3.63214 5.25736 4.75736C4.13214 5.88258 3.5 7.4087 3.5 9C3.5 10.5913 4.13214 12.1174 5.25736 13.2426C6.38258 14.3679 7.9087 15 9.5 15ZM10.25 6C10.25 5.80109 10.171 5.61032 10.0303 5.46967C9.88968 5.32902 9.69891 5.25 9.5 5.25C9.30109 5.25 9.11032 5.32902 8.96967 5.46967C8.82902 5.61032 8.75 5.80109 8.75 6V8.8125C8.75 9.33 9.17 9.75 9.6875 9.75H11.75C11.9489 9.75 12.1397 9.67098 12.2803 9.53033C12.421 9.38968 12.5 9.19891 12.5 9C12.5 8.80109 12.421 8.61032 12.2803 8.46967C12.1397 8.32902 11.9489 8.25 11.75 8.25H10.25V6Z" fill="#0ABAB5"/>
</svg>
