<svg width="30" height="30" viewBox="0 0 30 30" fill="none" xmlns="http://www.w3.org/2000/svg">
<rect width="30" height="30" rx="8" fill="#F8F8F8"/>
<path fill-rule="evenodd" clip-rule="evenodd" d="M17.6075 22V16.5785H19.4275L19.6998 14.4659H17.6068V13.117C17.6068 12.5052 17.7769 12.088 18.6547 12.088H19.7733V10.198C19.2316 10.1398 18.6871 10.1118 18.1423 10.114C16.5295 10.114 15.4256 11.0989 15.4256 12.907V14.4659H13.6V16.5785H15.4249V22H8.7728C8.3458 22 8 21.6542 8 21.2272V8.7728C8 8.3458 8.3458 8 8.7728 8H21.2272C21.6542 8 22 8.3458 22 8.7728V21.2272C22 21.6542 21.6542 22 21.2272 22H17.6075Z" fill="currentColor"/>
</svg>
