<svg width="104" height="26" viewBox="0 0 104 26" fill="none" xmlns="http://www.w3.org/2000/svg">
<g clip-path="url(#clip0_638_7258)">
<path d="M27.326 9.1536H37.8545V11.1395H33.7153V22.3058H31.4377V11.1395H27.3163V9.15283H27.3253L27.326 9.1536ZM37.4051 12.7821H39.3514V14.6205H39.3878C39.4524 14.3605 39.5713 14.1097 39.7458 13.868C40.1191 13.3501 40.6243 12.9486 41.2055 12.7079C41.5008 12.5875 41.8151 12.5245 42.1326 12.5221C42.3703 12.5221 42.5457 12.5313 42.6378 12.5412C42.7291 12.5504 42.8205 12.5688 42.9215 12.5779V14.6014C42.7725 14.5745 42.6226 14.5528 42.4721 14.5364C42.3227 14.5182 42.1724 14.509 42.0219 14.5088C41.6728 14.5088 41.343 14.583 41.031 14.7229C40.719 14.8614 40.4523 15.0747 40.2235 15.3447C39.9794 15.6465 39.7924 15.9928 39.6723 16.3655C39.5349 16.7739 39.4702 17.2373 39.4702 17.7672V22.2966H37.3962V12.7821H37.4051ZM52.4591 22.3065H50.4214V20.979H50.3843C50.1273 21.4623 49.7514 21.8431 49.2462 22.1307C48.7411 22.4182 48.227 22.5665 47.7041 22.5665C46.465 22.5665 45.5646 22.2607 45.0149 21.6382C44.4637 21.0165 44.1881 20.0789 44.1881 18.8256V12.7829H46.2629V18.6214C46.2629 19.4572 46.4189 20.0514 46.7406 20.3948C47.0526 20.7381 47.502 20.9148 48.071 20.9148C48.5115 20.9148 48.8696 20.8498 49.163 20.7098C49.4572 20.5707 49.6957 20.3948 49.8702 20.1623C50.0537 19.9398 50.1822 19.6614 50.2654 19.3456C50.3471 19.0298 50.3843 18.6864 50.3843 18.3155V12.7921H52.4591V22.3065ZM55.9929 19.2531C56.0575 19.8648 56.2863 20.2931 56.6815 20.5431C57.0849 20.7848 57.5625 20.9148 58.1226 20.9148C58.3158 20.9148 58.5357 20.8957 58.7838 20.8681C59.0311 20.8398 59.2696 20.7748 59.4813 20.6922C59.7012 20.6081 59.875 20.4781 60.0221 20.3114C60.1603 20.1432 60.2242 19.9306 60.2153 19.6614C60.2141 19.5365 60.1873 19.4132 60.1368 19.2997C60.0862 19.1861 60.013 19.0847 59.9218 19.0022C59.7376 18.8264 59.5088 18.6964 59.2235 18.5847C58.9058 18.4714 58.5806 18.3814 58.2504 18.3155C57.8834 18.2414 57.5165 18.1572 57.1406 18.0739C56.7619 17.9895 56.3879 17.8841 56.0203 17.7581C55.6756 17.6443 55.3504 17.4753 55.0569 17.2572C54.7708 17.0517 54.5375 16.7777 54.3771 16.4588C54.2033 16.1338 54.1201 15.7347 54.1201 15.2521C54.1201 14.7321 54.2486 14.3054 54.4967 13.9521C54.747 13.6018 55.0701 13.3134 55.4424 13.1079C55.8425 12.8901 56.2727 12.7367 56.7179 12.6529C57.1859 12.5695 57.6361 12.5229 58.058 12.5229C58.5446 12.5229 59.0126 12.5787 59.4538 12.6812C59.881 12.7753 60.2882 12.9481 60.6558 13.1912C61.0138 13.4237 61.3073 13.7296 61.5465 14.1012C61.7849 14.4721 61.932 14.9271 61.9959 15.4563H59.8297C59.7287 14.9554 59.5081 14.6121 59.1507 14.4446C58.7927 14.2687 58.3797 14.1846 57.9206 14.1846C57.7735 14.1846 57.5989 14.1938 57.3976 14.2221C57.2036 14.2486 57.0127 14.2953 56.8278 14.3612C56.6588 14.4253 56.5055 14.5266 56.3784 14.6579C56.3167 14.7265 56.2688 14.8069 56.2373 14.8946C56.2058 14.9822 56.1914 15.0754 56.1949 15.1688C56.1949 15.4288 56.2863 15.6329 56.4609 15.7905C56.6354 15.948 56.865 16.078 57.1495 16.1897C57.434 16.2921 57.7557 16.3847 58.1226 16.4588C58.4896 16.533 58.8655 16.6164 59.2518 16.7005C59.6277 16.7838 59.9946 16.8955 60.3623 17.0155C60.7293 17.1364 61.0502 17.3038 61.3355 17.5172C61.62 17.7305 61.8495 17.9905 62.0234 18.3064C62.1979 18.6214 62.2901 19.0206 62.2901 19.4848C62.2901 20.0507 62.1615 20.5248 61.9038 20.9239C61.6475 21.3139 61.3169 21.6382 60.9128 21.8798C60.4898 22.1307 60.0314 22.3123 59.5541 22.4182C59.0686 22.5281 58.573 22.584 58.0758 22.5849C57.5191 22.5913 56.9639 22.5227 56.4245 22.3807C55.9193 22.2415 55.4788 22.0374 55.1118 21.7689C54.7491 21.4977 54.4509 21.1452 54.2397 20.7381C54.0287 20.3298 53.9181 19.8373 53.9002 19.2714H55.9929V19.2531ZM62.8405 12.7837H64.4102V9.92366H66.485V12.7837H68.357V14.3513H66.4857V19.4389C66.4857 19.6607 66.4946 19.8472 66.5132 20.0139C66.531 20.1722 66.5771 20.3114 66.6417 20.4223C66.7119 20.5388 66.8185 20.6273 66.9441 20.6731C67.0822 20.7289 67.2561 20.7572 67.4953 20.7572C67.6416 20.7572 67.7887 20.7572 67.9358 20.7473C68.0829 20.7381 68.2292 20.7198 68.3763 20.6823V22.3065C68.1467 22.3348 67.9172 22.3532 67.7062 22.3807C67.4838 22.4073 67.2601 22.4198 67.0362 22.4182C66.4857 22.4182 66.0452 22.3624 65.7139 22.2607C65.3841 22.1582 65.1174 22.0007 64.9339 21.7965C64.7407 21.5923 64.6219 21.3415 64.5483 21.0348C64.4768 20.69 64.437 20.339 64.4295 19.9864V14.3689H62.8598V12.7814H62.8413L62.8405 12.7837ZM69.8256 12.7837H71.7905V14.0729H71.8276C72.1203 13.5162 72.5244 13.1262 73.0474 12.8854C73.5819 12.6407 74.1613 12.5171 74.7463 12.5229C75.4891 12.5229 76.1317 12.6529 76.6829 12.9221C77.2334 13.1821 77.6925 13.5445 78.0594 14.008C78.4264 14.4721 78.6931 15.0105 78.8766 15.6238C79.0635 16.2618 79.1564 16.925 79.1522 17.5914C79.1522 18.2314 79.0697 18.8531 78.9041 19.4481C78.7519 20.0219 78.5 20.5627 78.1605 21.044C77.8268 21.5081 77.3933 21.8863 76.8939 22.149C76.3798 22.4274 75.7833 22.5665 75.0858 22.5665C74.7809 22.5662 74.4766 22.538 74.1765 22.4824C73.8772 22.4269 73.5849 22.3369 73.3051 22.214C73.0272 22.0946 72.7673 21.935 72.5333 21.7399C72.3023 21.5502 72.1011 21.3251 71.9368 21.0723H71.8997V25.8249H69.8256V12.7821V12.7837ZM77.0774 17.5539C77.0778 17.1306 77.0223 16.7092 76.9125 16.3013C76.8107 15.9148 76.6427 15.5502 76.4162 15.2246C76.2013 14.9149 75.9225 14.6579 75.5998 14.4721C75.2532 14.2793 74.8647 14.1804 74.4707 14.1846C73.5986 14.1846 72.9374 14.4905 72.4969 15.1038C72.0564 15.7163 71.8358 16.5338 71.8358 17.5539C71.8358 18.0364 71.8915 18.4822 72.0103 18.8906C72.1292 19.2989 72.2949 19.6522 72.5333 19.9489C72.7636 20.2464 73.0385 20.4781 73.3601 20.6448C73.681 20.8215 74.0577 20.9048 74.4796 20.9048C74.9573 20.9048 75.3517 20.8031 75.6823 20.6081C76.0024 20.4185 76.2781 20.1588 76.4898 19.8472C76.7008 19.5314 76.8575 19.1781 76.9489 18.7797C77.0333 18.3769 77.0764 17.966 77.0774 17.5539ZM80.7397 9.1536H82.8145V11.1403H80.7397V9.1536ZM80.7397 12.7829H82.8145V22.3065H80.7397V12.7829ZM84.6686 9.1536H86.7434V22.3065H84.6686V9.1536ZM93.1045 22.5665C92.3513 22.5665 91.6812 22.4365 91.0943 22.1865C90.5317 21.9489 90.0225 21.595 89.5982 21.1465C89.1857 20.689 88.8698 20.1484 88.6704 19.5589C88.452 18.9083 88.3435 18.2239 88.3495 17.5355C88.3495 16.8114 88.4594 16.1438 88.6704 15.5305C88.87 14.9413 89.1859 14.401 89.5982 13.9437C90.0016 13.4979 90.5067 13.1545 91.0943 12.9037C91.6812 12.6529 92.3513 12.5229 93.1045 12.5229C93.857 12.5229 94.5271 12.6529 95.1147 12.9037C95.7023 13.1545 96.1978 13.5078 96.6108 13.9437C97.0232 14.4009 97.3389 14.9412 97.5379 15.5305C97.7489 16.143 97.8588 16.8114 97.8588 17.5355C97.8588 18.2697 97.7489 18.9464 97.5379 19.5589C97.339 20.1485 97.0233 20.6891 96.6108 21.1465C96.2067 21.5923 95.7023 21.9357 95.1147 22.1865C94.5271 22.4365 93.857 22.5665 93.1045 22.5665ZM93.1045 20.9048C93.5636 20.9048 93.967 20.8031 94.3065 20.6081C94.6374 20.4185 94.9229 20.1552 95.1422 19.8373C95.3621 19.5222 95.5181 19.1598 95.6287 18.7606C95.7298 18.3614 95.7847 17.9531 95.7847 17.5355C95.7847 17.1272 95.7298 16.728 95.6287 16.3197C95.5342 15.9323 95.369 15.567 95.1422 15.2429C94.9224 14.9281 94.6369 14.6681 94.3065 14.4821C93.967 14.2871 93.5636 14.1846 93.1045 14.1846C92.6454 14.1846 92.2413 14.2871 91.9018 14.4821C91.5736 14.6709 91.2888 14.9305 91.0669 15.2429C90.8432 15.5689 90.6784 15.9336 90.5803 16.3197C90.4786 16.7166 90.426 17.1251 90.4235 17.5355C90.4235 17.9531 90.4793 18.3614 90.5803 18.7606C90.6813 19.1598 90.8462 19.5222 91.0669 19.8373C91.2867 20.1531 91.5623 20.4131 91.9018 20.6081C92.2413 20.8123 92.6454 20.9048 93.1045 20.9048ZM98.465 12.7837H100.035V9.92366H102.109V12.7837H103.981V14.3513H102.109V19.4389C102.109 19.6607 102.118 19.8472 102.136 20.0139C102.155 20.1722 102.201 20.3114 102.265 20.4223C102.336 20.5389 102.442 20.6274 102.568 20.6731C102.706 20.7289 102.88 20.7572 103.119 20.7572C103.265 20.7572 103.412 20.7572 103.559 20.7473C103.707 20.7381 103.853 20.7198 104 20.6823V22.3065C103.77 22.3348 103.541 22.3532 103.33 22.3807C103.108 22.4073 102.884 22.4198 102.66 22.4182C102.109 22.4182 101.668 22.3624 101.338 22.2607C101.008 22.1582 100.741 22.0007 100.558 21.7965C100.365 21.5923 100.246 21.3415 100.172 21.0348C100.101 20.69 100.061 20.3389 100.053 19.9864V14.3689H98.4835V12.7814H98.465V12.7837Z" fill="#1C5E59"/>
<path d="M24.9028 9.15276H15.3935L12.4562 0L9.50857 9.15353L0 9.14359L7.7012 14.8055L4.75503 23.9483L12.4562 18.2956L20.1485 23.9483L17.2113 14.8055L24.9028 9.15276Z" fill="#1C5E59"/>
<path d="M17.8717 16.8762L17.2105 14.8062L12.4562 18.2963L17.8717 16.8762Z" fill="#1C5E59"/>
</g>
<defs>
<clipPath id="clip0_638_7258">
<rect width="104" height="26" fill="white"/>
</clipPath>
</defs>
</svg>
