<svg width="62" height="62" viewBox="0 0 62 62" fill="none" xmlns="http://www.w3.org/2000/svg">
<path d="M8.23437 31.0001C8.23437 30.6147 8.38746 30.2451 8.65998 29.9726C8.93249 29.7001 9.3021 29.547 9.68749 29.547L48.8032 29.547L33.8481 14.5895C33.7054 14.4565 33.5908 14.296 33.5114 14.1178C33.432 13.9395 33.3893 13.7471 33.3859 13.552C33.3824 13.3569 33.4183 13.1631 33.4914 12.9821C33.5645 12.8012 33.6733 12.6368 33.8112 12.4989C33.9492 12.3609 34.1136 12.2521 34.2945 12.179C34.4755 12.1059 34.6693 12.07 34.8644 12.0735C35.0595 12.0769 35.2519 12.1196 35.4302 12.199C35.6084 12.2785 35.7688 12.393 35.9019 12.5357L53.3394 29.9732C53.6115 30.2457 53.7643 30.615 53.7643 31.0001C53.7643 31.3852 53.6115 31.7545 53.3394 32.027L35.9019 49.4645C35.6264 49.7212 35.2621 49.8609 34.8856 49.8543C34.5091 49.8476 34.15 49.6951 33.8837 49.4289C33.6175 49.1626 33.465 48.8035 33.4583 48.427C33.4517 48.0505 33.5914 47.6862 33.8481 47.4107L48.8032 32.4532L9.68749 32.4532C9.3021 32.4532 8.93249 32.3001 8.65998 32.0276C8.38746 31.7551 8.23437 31.3855 8.23437 31.0001Z" fill="#0D2B29"/>
</svg>
