<svg width="24" height="24" viewBox="0 0 24 24" fill="none" xmlns="http://www.w3.org/2000/svg">
<path d="M11.9996 3.18751C12.1488 3.18751 12.2919 3.24677 12.3974 3.35226C12.5029 3.45775 12.5621 3.60082 12.5621 3.75001L12.5621 18.8916L18.3521 13.1025C18.4036 13.0472 18.4657 13.0029 18.5347 12.9722C18.6037 12.9414 18.6782 12.9249 18.7538 12.9236C18.8293 12.9222 18.9043 12.9361 18.9743 12.9644C19.0444 12.9927 19.108 13.0348 19.1614 13.0882C19.2148 13.1416 19.2569 13.2053 19.2852 13.2753C19.3135 13.3453 19.3274 13.4204 19.3261 13.4959C19.3248 13.5714 19.3082 13.6459 19.2775 13.7149C19.2467 13.7839 19.2024 13.846 19.1471 13.8975L12.3971 20.6475C12.2917 20.7528 12.1487 20.812 11.9996 20.812C11.8506 20.812 11.7076 20.7528 11.6021 20.6475L4.85214 13.8975C4.75278 13.7909 4.69869 13.6498 4.70126 13.5041C4.70383 13.3584 4.76286 13.2194 4.86592 13.1163C4.96898 13.0132 5.10802 12.9542 5.25375 12.9516C5.39947 12.9491 5.54051 13.0031 5.64714 13.1025L11.4371 18.8916L11.4371 3.75001C11.4371 3.60082 11.4964 3.45775 11.6019 3.35226C11.7074 3.24677 11.8505 3.18751 11.9996 3.18751Z" fill="white"/>
</svg>
