<svg width="30" height="30" viewBox="0 0 30 30" fill="none" xmlns="http://www.w3.org/2000/svg">
<rect width="30" height="30" rx="8" fill="#F8F8F8"/>
<path d="M15.7196 8C16.5071 8.0021 16.9067 8.0063 17.2518 8.0161L17.3876 8.021C17.5444 8.0266 17.6991 8.0336 17.886 8.042C18.6308 8.077 19.1389 8.1946 19.5848 8.36749C20.0468 8.54529 20.436 8.78608 20.8252 9.17457C21.1812 9.52438 21.4566 9.94768 21.6322 10.4149C21.8051 10.8608 21.9227 11.369 21.9577 12.1145C21.9661 12.3007 21.9731 12.4554 21.9787 12.6129L21.9829 12.7487C21.9934 13.0931 21.9976 13.4928 21.999 14.2802L21.9997 14.8024V15.7194C22.0014 16.23 21.996 16.7406 21.9836 17.251L21.9794 17.3868C21.9738 17.5443 21.9668 17.699 21.9584 17.8852C21.9234 18.6306 21.8044 19.1381 21.6322 19.5847C21.4566 20.052 21.1812 20.4753 20.8252 20.8251C20.4754 21.1812 20.0521 21.4566 19.5848 21.6322C19.1389 21.8051 18.6308 21.9227 17.886 21.9577L17.3876 21.9787L17.2518 21.9829C16.9067 21.9927 16.5071 21.9976 15.7196 21.999L15.1974 21.9997H14.2812C13.7704 22.0015 13.2596 21.9961 12.749 21.9836L12.6132 21.9794C12.447 21.9731 12.2809 21.9658 12.1148 21.9577C11.37 21.9227 10.8619 21.8051 10.4153 21.6322C9.94828 21.4565 9.52523 21.1811 9.17564 20.8251C8.81932 20.4754 8.54365 20.052 8.36788 19.5847C8.19499 19.1388 8.07739 18.6306 8.0424 17.8852L8.0214 17.3868L8.0179 17.251C8.00499 16.7406 7.99916 16.23 8.0004 15.7194V14.2802C7.99846 13.7697 8.00359 13.2591 8.0158 12.7487L8.0207 12.6129C8.0263 12.4554 8.0333 12.3007 8.0417 12.1145C8.07669 11.369 8.19429 10.8615 8.36718 10.4149C8.54336 9.94749 8.81951 9.52417 9.17634 9.17457C9.52573 8.81866 9.94853 8.54324 10.4153 8.36749C10.8619 8.1946 11.3693 8.077 12.1148 8.042C12.301 8.0336 12.4564 8.0266 12.6132 8.021L12.749 8.0168C13.2594 8.00436 13.7699 7.999 14.2805 8.0007L15.7196 8ZM15 11.4999C14.0718 11.4999 13.1816 11.8687 12.5253 12.525C11.869 13.1814 11.5002 14.0716 11.5002 14.9998C11.5002 15.9281 11.869 16.8183 12.5253 17.4746C13.1816 18.131 14.0718 18.4997 15 18.4997C15.9283 18.4997 16.8184 18.131 17.4748 17.4746C18.1311 16.8183 18.4999 15.9281 18.4999 14.9998C18.4999 14.0716 18.1311 13.1814 17.4748 12.525C16.8184 11.8687 15.9283 11.4999 15 11.4999ZM15 12.8999C15.2758 12.8998 15.5489 12.9541 15.8037 13.0596C16.0585 13.1651 16.29 13.3197 16.485 13.5147C16.68 13.7097 16.8347 13.9411 16.9403 14.1959C17.0459 14.4507 17.1002 14.7237 17.1003 14.9995C17.1003 15.2753 17.0461 15.5483 16.9406 15.8031C16.8351 16.0579 16.6805 16.2894 16.4855 16.4845C16.2905 16.6795 16.0591 16.8342 15.8043 16.9398C15.5496 17.0454 15.2765 17.0997 15.0007 17.0998C14.4438 17.0998 13.9097 16.8785 13.5159 16.4847C13.1221 16.0909 12.9009 15.5568 12.9009 14.9998C12.9009 14.4429 13.1221 13.9088 13.5159 13.5149C13.9097 13.1211 14.4438 12.8999 15.0007 12.8999M18.6756 10.4499C18.4435 10.4499 18.221 10.5421 18.0569 10.7062C17.8928 10.8703 17.8006 11.0929 17.8006 11.3249C17.8006 11.557 17.8928 11.7795 18.0569 11.9436C18.221 12.1077 18.4435 12.1999 18.6756 12.1999C18.9076 12.1999 19.1302 12.1077 19.2942 11.9436C19.4583 11.7795 19.5505 11.557 19.5505 11.3249C19.5505 11.0929 19.4583 10.8703 19.2942 10.7062C19.1302 10.5421 18.9076 10.4499 18.6756 10.4499Z" fill="#0D2B29"/>
</svg>
