<svg width="49" height="16" viewBox="0 0 49 16" fill="none" xmlns="http://www.w3.org/2000/svg">
<g clip-path="url(#clip0_638_7293)">
<path d="M31.9083 0.0246582C28.4327 0.0246582 25.3266 1.83666 25.3266 5.18371C25.3266 9.02256 30.8352 9.28769 30.8352 11.2165C30.8352 12.0286 29.9101 12.7555 28.3293 12.7555C26.0866 12.7555 24.4103 11.7398 24.4103 11.7398L23.6929 15.1179C23.6929 15.1179 25.624 15.9759 28.1877 15.9759C31.9877 15.9759 34.9781 14.0752 34.9781 10.6705C34.9781 6.61379 29.4465 6.35655 29.4465 4.56673C29.4465 3.93053 30.206 3.23373 31.7819 3.23373C33.5601 3.23373 35.0105 3.97242 35.0105 3.97242L35.7126 0.710133C35.7126 0.710133 34.1339 0.0246582 31.9078 0.0246582H31.9083ZM0.108755 0.271055L0.0244751 0.763355C0.0244751 0.763355 1.48664 1.03242 2.80376 1.56956C4.49965 2.18506 4.62019 2.54382 4.90586 3.65654L8.01785 15.7216H12.1897L18.6165 0.271055H14.4545L10.3248 10.7759L8.63966 1.87115C8.48531 0.852058 7.70228 0.270562 6.74433 0.270562H0.109245L0.108755 0.271055ZM20.2904 0.271055L17.0255 15.7216H20.9945L24.2476 0.271055H20.2904ZM42.4266 0.271055C41.4697 0.271055 40.9625 0.786516 40.5906 1.68685L34.7758 15.7216H38.9378L39.7429 13.3823H44.8134L45.3029 15.7216H48.9755L45.7719 0.271055H42.4266ZM42.9681 4.4455L44.2019 10.2432H40.8968L42.9686 4.4455H42.9681Z" fill="#1C5E59"/>
</g>
<defs>
<clipPath id="clip0_638_7293">
<rect width="49" height="16" fill="white"/>
</clipPath>
</defs>
</svg>
