<svg width="74" height="74" viewBox="0 0 74 74" fill="none" xmlns="http://www.w3.org/2000/svg">
<path d="M21.55 43.7101C21.7893 44.217 21.5844 44.8317 21.069 45.0745L16.1099 47.4166L15.8785 47.0227C15.7909 46.874 15.6975 46.7126 15.6054 46.5177C15.5152 46.3267 15.45 46.154 15.3906 45.9895L15.2359 45.5614L20.1932 43.2201L20.2898 43.1799C20.7782 43.0077 21.3259 43.2356 21.55 43.7101Z" fill="#EC5E39" stroke="white"/>
<path d="M17.0444 41.1289C16.5777 41.4932 16.1741 41.8638 15.8795 42.2526L15.5131 42.7367L15.1082 42.2842L11.7987 38.579L12.4114 37.8069L16.9761 40.2961L17.6438 40.6601L17.0444 41.1289Z" fill="#EC5E39" stroke="white"/>
<path d="M18.3176 40.333C18.2459 40.3754 18.166 40.423 18.049 40.4869L17.8097 40.6182L17.5698 40.4875L10.6208 36.6933L9.75764 36.2218L12.6089 34.8752C13.3858 34.5082 14.0357 34.4833 14.5112 34.5696C14.717 34.607 14.8838 34.6659 15.0098 34.7197L15.0354 34.7076L15.2647 34.8477L20.7983 38.2153L21.5667 38.6829L20.7643 39.0878L18.5511 40.2076L18.5396 40.213L18.3176 40.333Z" fill="#EC5E39" stroke="white"/>
<path d="M12.6556 49.0465C12.1412 49.2893 11.5302 49.0715 11.2866 48.5559C11.0425 48.0386 11.2741 47.4323 11.7802 47.1931L15.1551 45.5991L15.3432 46.114C15.427 46.3437 15.4371 46.4234 15.5035 46.5653C15.5727 46.7117 15.6272 46.7678 15.7528 46.9811L16.0305 47.4526L12.6556 49.0465Z" fill="#EC5E39" stroke="white"/>
<path d="M56.7776 28.7311L56.5462 28.9797L55.2339 30.3858L54.7312 30.9245L52.5112 26.2241L53.2466 26.1781L55.1666 26.0586L55.5052 26.037L56.7776 28.7311Z" fill="#EC5E39" stroke="white"/>
<path d="M36.8895 20.6427C37.2773 21.4637 36.9374 22.4496 36.1063 22.8421L34.2449 23.7213L34.0063 23.5521L31.8499 22.0163L31.1542 21.522L34.6934 19.8504C35.5243 19.458 36.5017 19.8218 36.8895 20.6427Z" fill="#EC5E39" stroke="white"/>
<path d="M29.5673 15.1386C29.9581 15.9658 29.6133 16.954 28.788 17.3438L26.697 18.3313L26.4579 18.1613L24.305 16.626L23.611 16.1308L27.3754 14.3529C28.1967 13.9651 29.1802 14.3193 29.5673 15.1386Z" fill="#EC5E39" stroke="white"/>
<path d="M32.2066 32.0191C32.3082 32.1912 32.4381 32.4675 32.398 32.7744C32.3499 33.1427 32.0885 33.3843 31.7565 33.5061L31.7528 33.5143L31.6013 33.5891L31.0164 33.8805L30.7001 34.0385L30.4453 33.7917L19.8652 23.5282L20.5186 22.7736L31.6082 31.3125L31.634 31.3327L31.6566 31.3555C31.6627 31.3604 31.9983 31.6669 32.2066 32.0191Z" fill="#EC5E39" stroke="white"/>
<path d="M34.7677 31.9832C34.7192 32.0061 34.6096 32.0421 34.4839 32.073C34.3434 32.1075 34.1474 32.1442 33.9185 32.1564C33.5369 32.1767 33.0393 32.1254 32.5575 31.8564L32.5234 31.8757L32.2666 31.6773L14.4689 17.9679L14.4676 17.9674C14.2597 17.8062 14.0914 17.6204 13.9985 17.4017C13.8995 17.1686 13.9016 16.9332 13.9783 16.7233C14.1129 16.3551 14.4531 16.1309 14.6365 16.0247L14.6551 16.0137L18.3126 14.2863C19.8499 13.5603 20.9996 14.4061 20.9948 14.4041L21.0181 14.4168L21.0392 14.4317L39.4765 27.5928L39.4894 27.6018L39.5014 27.6112C39.6024 27.6931 39.7238 27.8046 39.8282 27.9418C39.9309 28.0769 40.0372 28.2641 40.0679 28.4928C40.1007 28.7379 40.0399 28.9859 39.8784 29.2076C39.7268 29.4158 39.5003 29.5837 39.2217 29.7241L34.7796 31.9765L34.7677 31.9832Z" fill="#EC5E39" stroke="white"/>
<path d="M25.2963 47.8023L24.3734 54.2106L24.3713 54.2267L24.3674 54.2437L24.367 54.245L24.3669 54.2471C24.3666 54.2485 24.3663 54.2501 24.3659 54.2519C24.365 54.256 24.364 54.2615 24.3625 54.2676C24.3597 54.2796 24.3553 54.2953 24.3501 54.3145C24.3397 54.3532 24.324 54.4062 24.3025 54.4698C24.2597 54.5965 24.1916 54.7694 24.0884 54.9586C23.8837 55.3339 23.5252 55.8024 22.9278 56.0846L19.8213 57.5518L20.0104 56.5823L21.5204 48.8285L21.5753 48.5423L21.8526 48.4503C22.0337 48.3896 22.1827 48.3408 22.32 48.2759L22.3324 48.2701L24.6005 47.2734L25.4251 46.9109L25.2963 47.8023Z" fill="#EC5E39" stroke="white"/>
<path d="M37.1556 42.5292C37.2782 42.707 37.3504 42.9135 37.3953 43.0802C37.4167 43.1595 37.4332 43.238 37.4469 43.3107L37.5446 43.3186L37.5295 43.7988L37.0758 57.8252L36.0779 57.8505L34.8608 43.1357L34.8321 42.7799L35.1586 42.6365L36.2439 42.1606L36.3546 42.1116L36.475 42.1195C36.8104 42.1404 37.0307 42.3482 37.1556 42.5292Z" fill="#EC5E39" stroke="white"/>
<path d="M49.1187 46.5355C49.5051 47.3536 49.1612 48.3374 48.3326 48.7287L45.1616 50.2264L45.241 49.354L45.4867 46.6957L45.5132 46.411L46.9233 45.745C47.7537 45.3528 48.731 45.7151 49.1187 46.5355Z" fill="#EC5E39" stroke="white"/>
<path d="M45.8428 39.2453C45.9398 39.4789 45.9855 39.7622 45.9823 40.0985L45.963 40.4532L45.9561 40.5256L45.9506 40.5368L43.861 62.924L43.6909 64.7431L43.3869 64.0994C43.1752 64.3617 42.8732 64.6174 42.4469 64.8188L36.8838 67.4462L36.9095 66.6295L37.6648 42.8075L37.6656 42.7726L37.6712 42.7386C37.8196 41.8757 38.4052 41.3341 38.7152 41.1007L38.7623 41.0655L38.8157 41.0414L44.2704 38.6509L44.2708 38.6518C44.2717 38.6514 44.2725 38.6509 44.2735 38.6505C44.2788 38.6483 44.2856 38.6453 44.2933 38.6422C44.3089 38.6361 44.3296 38.6283 44.3541 38.62C44.4027 38.6035 44.4706 38.5836 44.5509 38.5681C44.704 38.5386 44.9444 38.5172 45.1966 38.6066C45.4708 38.7038 45.705 38.9134 45.8428 39.2453Z" fill="#EC5E39" stroke="white"/>
<path d="M61.9245 24.6445C62.2807 25.3987 62.1407 26.2847 61.8057 27.1165C61.4651 27.9623 60.8849 28.8491 60.2084 29.6799C58.8623 31.3333 57.0417 32.8745 55.6979 33.5091L55.6855 33.515L22.276 48.1667C21.8293 48.3767 20.9539 48.7357 19.9527 48.8568C18.9417 48.9791 17.7398 48.864 16.742 48.034L16.1391 47.5325L21.1211 45.1795C21.6868 44.9122 21.9302 44.2309 21.661 43.6609C21.3924 43.0922 20.7139 42.8501 20.1473 43.1176L15.1652 45.4706L15.161 44.6864C15.1534 43.388 15.8302 42.3844 16.569 41.6788C17.3076 40.9735 18.1525 40.5206 18.5987 40.3098L18.5991 40.3107L51.0959 23.8339L51.1082 23.8281C52.459 23.1901 54.8092 22.7612 56.9432 22.7711C58.0155 22.7761 59.0692 22.8922 59.939 23.1663C60.7946 23.4359 61.5682 23.8902 61.9245 24.6445ZM55.8333 26.4694C55.7138 26.2162 55.5377 26.0878 55.3904 26.0187C55.3146 25.9832 55.2457 25.9631 55.1984 25.9528C55.1845 25.9498 55.1729 25.9478 55.164 25.9464L52.7366 26.0981C52.7347 26.0985 52.732 26.099 52.7287 26.0997C52.7158 26.1024 52.6946 26.1064 52.6698 26.1146C52.6159 26.1323 52.568 26.1573 52.5367 26.185C52.5138 26.2054 52.4994 26.2265 52.4938 26.2679C52.4869 26.3198 52.4894 26.4483 52.6003 26.6831L54.3728 30.436C54.3755 30.4407 54.3806 30.449 54.3875 30.4603C54.4018 30.4836 54.4239 30.5185 54.453 30.5579C54.5141 30.6406 54.5914 30.7269 54.6742 30.7861C54.7555 30.8442 54.811 30.8546 54.8479 30.852C54.8793 30.8497 54.98 30.8326 55.1432 30.6585L55.2076 30.5892L55.2165 30.585L56.5165 29.1805C56.7045 28.9776 56.7488 28.7639 56.7477 28.5907C56.7471 28.5018 56.7339 28.4255 56.7216 28.373L56.7062 28.3176L55.8333 26.4694Z" fill="#EC5E39" stroke="white"/>
<path d="M21.2833 49.4173L20.3037 54.5165L19.3181 54.4992L18.552 49.6003L18.4589 49.0006L19.0651 49.0243C19.5564 49.0429 20.1008 48.9724 20.6773 48.8363L21.4296 48.6592L21.2833 49.4173Z" fill="#EC5E39" stroke="white"/>
<path d="M48.7163 55.682C49.1052 56.5052 48.7565 57.4914 47.9336 57.8801L44.292 59.6L44.3732 58.7268L44.623 56.059L44.649 55.7756L46.5219 54.891L46.6775 54.8272C47.4648 54.5489 48.3513 54.9096 48.7163 55.682Z" fill="#EC5E39" stroke="white"/>
</svg>
