<svg width="559" height="141" viewBox="0 0 559 141" fill="none" xmlns="http://www.w3.org/2000/svg">
<path d="M4 137C4 137 144.419 4 279.5 4C414.581 4 555 137 555 137" stroke="#0ABAB5" stroke-width="8" stroke-linecap="round"/>
<path d="M71.123 83.1657C71.4297 83.6349 71.311 84.272 70.8339 84.5832L66.2434 87.5841L65.96 87.2256C65.8528 87.0904 65.7382 86.9434 65.6202 86.7629C65.5047 86.5862 65.4163 86.4241 65.3349 86.2693L65.1229 85.8665L69.7118 82.8666L69.8019 82.8136C70.2621 82.5759 70.8358 82.7264 71.123 83.1657Z" fill="#EC5E39" stroke="white"/>
<path d="M66.3056 81.2274C65.8933 81.6523 65.5444 82.0748 65.306 82.5004L65.0095 83.0302L64.5463 82.6376L60.7594 79.4219L61.2603 78.573L66.1236 80.4118L66.8349 80.6807L66.3056 81.2274Z" fill="#EC5E39" stroke="white"/>
<path d="M67.4575 80.2645C67.3923 80.3163 67.3196 80.3744 67.2125 80.4538L66.9936 80.6168L66.7379 80.5202L59.3338 77.7161L58.4141 77.3676L61.0535 75.6422C61.7726 75.1721 62.413 75.0581 62.8958 75.0784C63.1048 75.0872 63.2781 75.1225 63.4103 75.1586L63.434 75.1431L63.6803 75.2504L69.6239 77.8262L70.4492 78.1839L69.71 78.6951L67.6715 80.1082L67.6609 80.1152L67.4575 80.2645Z" fill="#EC5E39" stroke="white"/>
<path d="M63.0456 89.6735C62.5694 89.9846 61.9343 89.8528 61.6222 89.3755C61.3094 88.8966 61.4556 88.2642 61.924 87.9578L65.0481 85.9155L65.3051 86.3997C65.4197 86.6158 65.4406 86.6933 65.5259 86.8248C65.6145 86.9602 65.6762 87.0084 65.8299 87.2024L66.1697 87.6312L63.0456 89.6735Z" fill="#EC5E39" stroke="white"/>
<path d="M103.96 63.4917L103.765 63.7697L102.658 65.3427L102.234 65.9453L99.39 61.5943L100.112 61.4477L101.997 61.0658L102.33 60.9978L103.96 63.4917Z" fill="#EC5E39" stroke="white"/>
<path d="M83.1498 58.2111C83.6467 58.9711 83.4453 59.9944 82.6761 60.4973L80.953 61.6237L80.6934 61.4889L78.3466 60.2637L77.5896 59.8696L80.8657 57.7279C81.6349 57.2251 82.653 57.4512 83.1498 58.2111Z" fill="#EC5E39" stroke="white"/>
<path d="M75.1413 53.7642C75.6419 54.53 75.436 55.5561 74.6721 56.0555L72.7365 57.3208L72.4763 57.1852L70.133 55.9601L69.3777 55.5649L72.8622 53.2869C73.6225 52.79 74.6454 53.0058 75.1413 53.7642Z" fill="#EC5E39" stroke="white"/>
<path d="M80.0733 70.122C80.1977 70.2785 80.3642 70.5344 80.3667 70.8438C80.3696 71.2153 80.1438 71.4905 79.8317 71.6567L79.8292 71.6653L79.6894 71.7602L79.15 72.1291L78.8584 72.3291L78.5721 72.1196L66.6829 63.406L67.2265 62.5688L79.3836 69.5042L79.4119 69.5207L79.4374 69.5401C79.4442 69.5441 79.8187 69.8016 80.0733 70.122Z" fill="#EC5E39" stroke="white"/>
<path d="M82.6054 69.7351C82.5605 69.7644 82.4569 69.8151 82.3366 69.863C82.2022 69.9164 82.0131 69.9797 81.788 70.0232C81.4129 70.0957 80.9129 70.1133 80.3987 69.9129L80.3676 69.9368L80.086 69.7755L60.5745 58.6397L60.5731 58.6394C60.345 58.5082 60.1528 58.3473 60.0307 58.1435C59.9006 57.9261 59.8704 57.6927 59.9176 57.4742C60.0004 57.0911 60.3066 56.8222 60.4737 56.6918L60.4906 56.6784L63.8763 54.4652C65.2993 53.535 66.5542 54.215 66.5492 54.2135L66.5741 54.223L66.597 54.2348L86.6667 64.7397L86.6807 64.7468L86.694 64.7546C86.8052 64.8218 86.9408 64.9155 87.063 65.0371C87.1834 65.1568 87.3143 65.3276 87.3761 65.55C87.4423 65.7883 87.4161 66.0423 87.2866 66.284C87.165 66.511 86.9637 66.7085 86.707 66.8858L82.6163 69.7268L82.6054 69.7351Z" fill="#EC5E39" stroke="white"/>
<path d="M75.3958 86.7046L75.3615 93.1789L75.3617 93.1952L75.3601 93.2125L75.3599 93.2139L75.3601 93.216C75.36 93.2174 75.3599 93.2191 75.3598 93.2209C75.3594 93.225 75.3592 93.2307 75.3586 93.2369C75.3574 93.2491 75.3552 93.2653 75.3527 93.285C75.3477 93.3248 75.3394 93.3795 75.3269 93.4454C75.3019 93.5768 75.2582 93.7574 75.182 93.959C75.0307 94.3588 74.7399 94.8722 74.187 95.2336L71.3113 97.1135L71.3655 96.1272L71.7966 88.2396L71.8117 87.9486L72.0737 87.8193C72.2447 87.7344 72.3856 87.6655 72.5127 87.5824L72.5241 87.575L74.6339 86.2763L75.401 85.804L75.3958 86.7046Z" fill="#EC5E39" stroke="white"/>
<path d="M86.4187 79.8535C86.5645 80.0127 86.6644 80.2074 86.7318 80.3664C86.7638 80.4419 86.791 80.5174 86.8146 80.5876L86.9124 80.582L86.9633 81.0597L88.4399 95.0156L87.4549 95.1776L84.2289 80.7693L84.1516 80.4208L84.4553 80.234L85.465 79.6136L85.5679 79.5498L85.6883 79.5411C86.0233 79.5158 86.2701 79.6913 86.4187 79.8535Z" fill="#EC5E39" stroke="white"/>
<path d="M98.8186 82.1792C99.3136 82.9365 99.1081 83.9582 98.3411 84.4596L95.4058 86.3785L95.3646 85.5035L95.243 82.8366L95.2301 82.551L96.5355 81.6976C97.3041 81.1952 98.322 81.4199 98.8186 82.1792Z" fill="#EC5E39" stroke="white"/>
<path d="M94.5726 75.4078C94.7007 75.6259 94.785 75.9002 94.8279 76.2338L94.8575 76.5878L94.8606 76.6604L94.8567 76.6723L95.8608 99.1344L95.9422 100.96L95.5526 100.364C95.379 100.653 95.115 100.947 94.7203 101.205L89.5706 104.572L89.484 103.759L86.9612 80.0592L86.9572 80.0245L86.958 79.9901C86.9866 79.1149 87.4923 78.498 87.7673 78.2243L87.8091 78.183L87.8587 78.1517L92.9335 75.0349L92.934 75.0358C92.9348 75.0353 92.9356 75.0347 92.9365 75.0342C92.9415 75.0312 92.9478 75.0273 92.955 75.0232C92.9696 75.0149 92.9891 75.0044 93.0121 74.9929C93.0581 74.9698 93.1226 74.9408 93.2 74.9144C93.3475 74.8641 93.5828 74.8099 93.8449 74.8638C94.1298 74.9225 94.3906 75.098 94.5726 75.4078Z" fill="#EC5E39" stroke="white"/>
<path d="M108.497 58.7365C108.954 59.4347 108.937 60.3315 108.719 61.2014C108.498 62.0859 108.045 63.044 107.489 63.9599C106.383 65.7824 104.791 67.559 103.547 68.3721L103.535 68.3796L72.4541 87.48C72.0405 87.7493 71.2226 88.2251 70.2476 88.4826C69.2629 88.7425 68.0566 88.7934 66.9543 88.1083L66.2882 87.6944L70.9 84.6796C71.4236 84.3372 71.5711 83.6289 71.2262 83.1013C70.8821 82.5749 70.1768 82.4282 69.6523 82.771L65.0405 85.7858L64.9286 85.0096C64.7428 83.7245 65.2754 82.6374 65.9103 81.8371C66.5451 81.0371 67.3198 80.4724 67.7328 80.2024L67.7333 80.2032L97.6599 59.4205L97.6714 59.413C98.9217 58.5956 101.191 57.848 103.306 57.5648C104.369 57.4225 105.428 57.3928 106.328 57.5449C107.212 57.6945 108.041 58.0383 108.497 58.7365ZM102.714 61.3805C102.561 61.1461 102.369 61.0431 102.214 60.9949C102.134 60.9701 102.063 60.9597 102.015 60.956C102 60.9549 101.989 60.9545 101.98 60.9543L99.596 61.438C99.5941 61.4386 99.5916 61.4395 99.5884 61.4406C99.5759 61.445 99.5555 61.4519 99.5321 61.4634C99.4811 61.4883 99.4371 61.5197 99.41 61.5514C99.39 61.5748 99.3787 61.5977 99.3788 61.6394C99.3791 61.6918 99.3992 61.8187 99.5413 62.0361L101.812 65.51C101.816 65.5143 101.822 65.5219 101.83 65.5321C101.848 65.5532 101.874 65.5848 101.909 65.6198C101.98 65.6933 102.069 65.7682 102.159 65.8154C102.247 65.8619 102.304 65.8646 102.34 65.8569C102.371 65.8503 102.468 65.8195 102.606 65.6247L102.66 65.5472L102.668 65.5419L103.763 63.9721C103.922 63.7453 103.936 63.5275 103.911 63.3561C103.899 63.2681 103.875 63.1944 103.856 63.1441L103.833 63.0913L102.714 61.3805Z" fill="#EC5E39" stroke="white"/>
<path d="M71.6425 88.856L71.3723 94.0414L70.3937 94.1596L68.9622 89.4123L68.7876 88.8311L69.3914 88.7713C69.8805 88.7223 70.4101 88.5777 70.9625 88.3637L71.6833 88.085L71.6425 88.856Z" fill="#EC5E39" stroke="white"/>
<path d="M99.6759 91.2945C100.174 92.0566 99.9641 93.0813 99.2024 93.5792L95.8314 95.7829L95.7919 94.9068L95.6731 92.2299L95.6599 91.9457L97.3936 90.8123L97.539 90.7278C98.2807 90.344 99.2083 90.5795 99.6759 91.2945Z" fill="#EC5E39" stroke="white"/>
</svg>
