<svg width="548" height="96" viewBox="0 0 548 96" fill="none" xmlns="http://www.w3.org/2000/svg">
<rect width="94.3062" height="94.3062" transform="translate(0.512207 0.785156)" fill="#FF3722"/>
<path d="M47.6654 65.2723L62.0078 61.4318L68.0001 80.9455L47.6654 65.2723ZM80.6725 40.0498H55.426L47.6654 14.9312L39.9048 40.0498H14.6582L35.0912 55.6192L27.3306 80.7379L47.7636 65.1685L60.3377 55.6192L80.6725 40.0498Z" fill="white"/>
<rect width="94.3062" height="94.3062" transform="translate(113.68 0.785156)" fill="#D9D9D9"/>
<path d="M160.833 65.2723L175.175 61.4318L181.168 80.9455L160.833 65.2723ZM193.84 40.0498H168.593L160.833 14.9312L153.072 40.0498H127.826L148.259 55.6192L140.498 80.7379L160.931 65.1685L173.505 55.6192L193.84 40.0498Z" fill="white"/>
<rect width="94.3062" height="94.3062" transform="translate(226.847 0.785156)" fill="#D9D9D9"/>
<path d="M274 65.2723L288.342 61.4318L294.335 80.9455L274 65.2723ZM307.007 40.0498H281.761L274 14.9312L266.239 40.0498H240.993L261.426 55.6192L253.665 80.7379L274.098 65.1685L286.672 55.6192L307.007 40.0498Z" fill="white"/>
<rect width="94.3062" height="94.3062" transform="translate(340.014 0.785156)" fill="#D9D9D9"/>
<path d="M387.168 65.2723L401.51 61.4318L407.502 80.9455L387.168 65.2723ZM420.175 40.0498H394.928L387.168 14.9312L379.407 40.0498H354.16L374.593 55.6192L366.833 80.7379L387.266 65.1685L399.84 55.6192L420.175 40.0498Z" fill="white"/>
<rect width="94.3062" height="94.3062" transform="translate(453.182 0.785156)" fill="#D9D9D9"/>
<path d="M500.335 65.2723L514.677 61.4318L520.67 80.9455L500.335 65.2723ZM533.342 40.0498H508.096L500.335 14.9312L492.574 40.0498H467.328L487.761 55.6192L480 80.7379L500.433 65.1685L513.007 55.6192L533.342 40.0498Z" fill="white"/>
</svg>
