<svg width="548" height="96" viewBox="0 0 548 96" fill="none" xmlns="http://www.w3.org/2000/svg">
<rect width="94.3062" height="94.3062" transform="translate(0.512207 0.967041)" fill="#FF8622"/>
<path d="M47.6654 65.454L62.0078 61.6136L68.0001 81.1272L47.6654 65.454ZM80.6725 40.2316H55.426L47.6654 15.1129L39.9048 40.2316H14.6582L35.0912 55.801L27.3306 80.9196L47.7636 65.3502L60.3377 55.801L80.6725 40.2316Z" fill="white"/>
<rect width="94.3062" height="94.3062" transform="translate(113.68 0.967041)" fill="#FF8622"/>
<path d="M160.833 65.454L175.175 61.6136L181.168 81.1272L160.833 65.454ZM193.84 40.2316H168.593L160.833 15.1129L153.072 40.2316H127.826L148.259 55.801L140.498 80.9196L160.931 65.3502L173.505 55.801L193.84 40.2316Z" fill="white"/>
<rect width="94.3062" height="94.3062" transform="translate(226.847 0.967041)" fill="#D9D9D9"/>
<path d="M274 65.454L288.342 61.6136L294.335 81.1272L274 65.454ZM307.007 40.2316H281.761L274 15.1129L266.239 40.2316H240.993L261.426 55.801L253.665 80.9196L274.098 65.3502L286.672 55.801L307.007 40.2316Z" fill="white"/>
<rect width="94.3062" height="94.3062" transform="translate(340.014 0.967041)" fill="#D9D9D9"/>
<path d="M387.168 65.454L401.51 61.6136L407.502 81.1272L387.168 65.454ZM420.175 40.2316H394.928L387.168 15.1129L379.407 40.2316H354.16L374.593 55.801L366.833 80.9196L387.266 65.3502L399.84 55.801L420.175 40.2316Z" fill="white"/>
<rect width="94.3062" height="94.3062" transform="translate(453.182 0.967041)" fill="#D9D9D9"/>
<path d="M500.335 65.454L514.677 61.6136L520.67 81.1272L500.335 65.454ZM533.342 40.2316H508.096L500.335 15.1129L492.574 40.2316H467.328L487.761 55.801L480 80.9196L500.433 65.3502L513.007 55.801L533.342 40.2316Z" fill="white"/>
</svg>
