<svg width="548" height="95" viewBox="0 0 548 95" fill="none" xmlns="http://www.w3.org/2000/svg">
<rect width="94.3062" height="94.3062" transform="translate(0.512207 0.148682)" fill="#FFCE00"/>
<path d="M47.6654 64.6358L62.0078 60.7953L68.0001 80.309L47.6654 64.6358ZM80.6725 39.4133H55.426L47.6654 14.2947L39.9048 39.4133H14.6582L35.0912 54.9827L27.3306 80.1014L47.7636 64.532L60.3377 54.9827L80.6725 39.4133Z" fill="white"/>
<rect width="94.3062" height="94.3062" transform="translate(113.68 0.148682)" fill="#FFCE00"/>
<path d="M160.833 64.6357L175.175 60.7952L181.168 80.3089L160.833 64.6357ZM193.84 39.4132H168.593L160.833 14.2946L153.072 39.4132H127.826L148.259 54.9826L140.498 80.1013L160.931 64.5319L173.505 54.9826L193.84 39.4132Z" fill="white"/>
<rect width="94.3062" height="94.3062" transform="translate(226.847 0.148682)" fill="#FFCE00"/>
<path d="M274 64.6358L288.342 60.7953L294.335 80.309L274 64.6358ZM307.007 39.4133H281.761L274 14.2947L266.239 39.4133H240.993L261.426 54.9827L253.665 80.1014L274.098 64.532L286.672 54.9827L307.007 39.4133Z" fill="white"/>
<rect width="94.3062" height="94.3062" transform="translate(340.014 0.148682)" fill="#D9D9D9"/>
<path d="M387.168 64.6357L401.51 60.7952L407.502 80.3089L387.168 64.6357ZM420.175 39.4132H394.928L387.168 14.2946L379.407 39.4132H354.16L374.593 54.9826L366.833 80.1013L387.266 64.5319L399.84 54.9826L420.175 39.4132Z" fill="white"/>
<rect width="94.3062" height="94.3062" transform="translate(453.182 0.148682)" fill="#D9D9D9"/>
<path d="M500.335 64.6357L514.677 60.7952L520.67 80.3089L500.335 64.6357ZM533.342 39.4132H508.096L500.335 14.2946L492.574 39.4132H467.328L487.761 54.9826L480 80.1013L500.433 64.5319L513.007 54.9826L533.342 39.4132Z" fill="white"/>
</svg>
