<svg width="548" height="95" viewBox="0 0 548 95" fill="none" xmlns="http://www.w3.org/2000/svg">
<rect width="94.3062" height="94.3062" transform="translate(0.512207 0.330444)" fill="#73CF11"/>
<path d="M47.6654 64.8175L62.0078 60.9771L68.0001 80.4908L47.6654 64.8175ZM80.6725 39.5951H55.426L47.6654 14.4764L39.9048 39.5951H14.6582L35.0912 55.1645L27.3306 80.2832L47.7636 64.7137L60.3377 55.1645L80.6725 39.5951Z" fill="white"/>
<rect width="94.3062" height="94.3062" transform="translate(113.68 0.330444)" fill="#73CF11"/>
<path d="M160.833 64.8174L175.175 60.977L181.168 80.4906L160.833 64.8174ZM193.84 39.595H168.593L160.833 14.4763L153.072 39.595H127.826L148.259 55.1644L140.498 80.283L160.931 64.7136L173.505 55.1644L193.84 39.595Z" fill="white"/>
<rect width="94.3062" height="94.3062" transform="translate(226.847 0.330444)" fill="#73CF11"/>
<path d="M274 64.8175L288.342 60.9771L294.335 80.4908L274 64.8175ZM307.007 39.5951H281.761L274 14.4764L266.239 39.5951H240.993L261.426 55.1645L253.665 80.2832L274.098 64.7137L286.672 55.1645L307.007 39.5951Z" fill="white"/>
<rect width="94.3062" height="94.3062" transform="translate(340.014 0.330444)" fill="#73CF11"/>
<path d="M387.168 64.8174L401.51 60.977L407.502 80.4906L387.168 64.8174ZM420.175 39.595H394.928L387.168 14.4763L379.407 39.595H354.16L374.593 55.1644L366.833 80.283L387.266 64.7136L399.84 55.1644L420.175 39.595Z" fill="white"/>
<rect width="94.3062" height="94.3062" transform="translate(453.182 0.330444)" fill="#D9D9D9"/>
<path d="M500.335 64.8174L514.677 60.977L520.67 80.4906L500.335 64.8174ZM533.342 39.595H508.096L500.335 14.4763L492.574 39.595H467.328L487.761 55.1644L480 80.283L500.433 64.7136L513.007 55.1644L533.342 39.595Z" fill="white"/>
</svg>
