<svg width="548" height="95" viewBox="0 0 548 95" fill="none" xmlns="http://www.w3.org/2000/svg">
<rect width="94.3062" height="94.3062" transform="translate(0.512207 0.512085)" fill="#219653"/>
<path d="M47.6654 64.9991L62.0078 61.1586L68.0001 80.6723L47.6654 64.9991ZM80.6725 39.7766H55.426L47.6654 14.658L39.9048 39.7766H14.6582L35.0912 55.346L27.3306 80.4647L47.7636 64.8953L60.3377 55.346L80.6725 39.7766Z" fill="white"/>
<rect width="94.3062" height="94.3062" transform="translate(113.68 0.512085)" fill="#219653"/>
<path d="M160.833 64.9991L175.175 61.1586L181.168 80.6723L160.833 64.9991ZM193.84 39.7766H168.593L160.833 14.658L153.072 39.7766H127.826L148.259 55.346L140.498 80.4647L160.931 64.8953L173.505 55.346L193.84 39.7766Z" fill="white"/>
<rect width="94.3062" height="94.3062" transform="translate(226.847 0.512085)" fill="#219653"/>
<path d="M274 64.9991L288.342 61.1586L294.335 80.6723L274 64.9991ZM307.007 39.7766H281.761L274 14.658L266.239 39.7766H240.993L261.426 55.346L253.665 80.4647L274.098 64.8953L286.672 55.346L307.007 39.7766Z" fill="white"/>
<rect width="94.3062" height="94.3062" transform="translate(340.014 0.512085)" fill="#219653"/>
<path d="M387.168 64.9991L401.51 61.1586L407.502 80.6723L387.168 64.9991ZM420.175 39.7766H394.928L387.168 14.658L379.407 39.7766H354.16L374.593 55.346L366.833 80.4647L387.266 64.8953L399.84 55.346L420.175 39.7766Z" fill="white"/>
<rect width="94.3062" height="94.3062" transform="translate(453.182 0.512085)" fill="#219653"/>
<path d="M500.335 64.9991L514.677 61.1586L520.67 80.6723L500.335 64.9991ZM533.342 39.7766H508.096L500.335 14.658L492.574 39.7766H467.328L487.761 55.346L480 80.4647L500.433 64.8953L513.007 55.346L533.342 39.7766Z" fill="white"/>
</svg>
