<svg width="32" height="32" viewBox="0 0 32 32" fill="none" xmlns="http://www.w3.org/2000/svg">
<g clip-path="url(#clip0_866_7425)">
<path d="M25.75 0H6.25C2.79822 0 0 2.79822 0 6.25V25.75C0 29.2018 2.79822 32 6.25 32H25.75C29.2018 32 32 29.2018 32 25.75V6.25C32 2.79822 29.2018 0 25.75 0Z" fill="#0ABAB5"/>
<path d="M10.3239 9.72308V13.0198H5.11659V14.8555H8.86285V17.9836H5.11659V22.9849H0.958232V9.72308H10.3239ZM15.8908 19.838H19.8993V22.9849H11.7324V9.72308H15.8908V19.838ZM26.3964 23.116C24.8105 23.116 23.4993 22.7476 22.4628 22.0108C21.4388 21.2616 20.8831 20.1689 20.7957 18.7329H25.2163C25.2788 19.4946 25.6159 19.8755 26.2278 19.8755C26.4526 19.8755 26.6399 19.8255 26.7898 19.7256C26.9521 19.6132 27.0333 19.4446 27.0333 19.2199C27.0333 18.9077 26.8647 18.6579 26.5275 18.4706C26.1904 18.2708 25.6659 18.046 24.9541 17.7963C24.1049 17.4966 23.3994 17.2031 22.8374 16.9159C22.288 16.6287 21.8135 16.2104 21.4139 15.6609C21.0143 15.1115 20.8207 14.4059 20.8332 13.5443C20.8332 12.6826 21.0517 11.9521 21.4888 11.3527C21.9383 10.7408 22.544 10.2788 23.3057 9.96659C24.08 9.6544 24.9478 9.49831 25.9094 9.49831C27.5328 9.49831 28.819 9.87293 29.768 10.6222C30.7296 11.3714 31.2353 12.4266 31.2853 13.7878H26.8085C26.796 13.4132 26.7023 13.1447 26.5275 12.9823C26.3527 12.82 26.1404 12.7388 25.8907 12.7388C25.7158 12.7388 25.5722 12.8013 25.4598 12.9261C25.3474 13.0385 25.2912 13.2009 25.2912 13.4132C25.2912 13.7129 25.4536 13.9626 25.7783 14.1624C26.1154 14.3497 26.6461 14.5807 27.3704 14.8555C28.2071 15.1677 28.8939 15.4674 29.4309 15.7546C29.9803 16.0418 30.4549 16.4414 30.8545 16.9534C31.2541 17.4654 31.4539 18.1085 31.4539 18.8827C31.4539 19.6944 31.2541 20.4249 30.8545 21.0743C30.4549 21.7111 29.8742 22.2106 29.1124 22.5728C28.3507 22.9349 27.4454 23.116 26.3964 23.116Z" fill="white"/>
</g>
<defs>
<clipPath id="clip0_866_7425">
<rect width="32" height="32" fill="white"/>
</clipPath>
</defs>
</svg>
