<svg width="16" height="16" viewBox="0 0 16 16" fill="none" xmlns="http://www.w3.org/2000/svg">
<g clip-path="url(#clip0_866_7422)">
<path d="M12.875 0H3.125C1.39911 0 0 1.39911 0 3.125V12.875C0 14.6009 1.39911 16 3.125 16H12.875C14.6009 16 16 14.6009 16 12.875V3.125C16 1.39911 14.6009 0 12.875 0Z" fill="#0ABAB5"/>
<path d="M5.16195 4.36154V6.0099H2.55829V6.92773H4.43143V8.4918H2.55829V10.9924H0.479116V4.36154H5.16195ZM7.94538 9.419H9.94963V10.9924H5.8662V4.36154H7.94538V9.419ZM13.1982 11.058C12.4052 11.058 11.7496 10.8738 11.2314 10.5054C10.7194 10.1308 10.4416 9.58446 10.3979 8.86643H12.6082C12.6394 9.2473 12.808 9.43773 13.1139 9.43773C13.2263 9.43773 13.32 9.41276 13.3949 9.36281C13.476 9.30661 13.5166 9.22232 13.5166 9.10993C13.5166 8.95384 13.4323 8.82896 13.2638 8.73531C13.0952 8.63541 12.8329 8.52302 12.477 8.39814C12.0525 8.24829 11.6997 8.10156 11.4187 7.95796C11.144 7.81435 10.9067 7.60518 10.7069 7.33046C10.5071 7.05573 10.4104 6.70296 10.4166 6.27214C10.4166 5.84132 10.5259 5.47606 10.7444 5.17635C10.9692 4.87041 11.272 4.63939 11.6529 4.48329C12.04 4.3272 12.4739 4.24915 12.9547 4.24915C13.7664 4.24915 14.4095 4.43647 14.884 4.81109C15.3648 5.18572 15.6177 5.71332 15.6426 6.39389H13.4042C13.398 6.20658 13.3512 6.07234 13.2638 5.99117C13.1763 5.91 13.0702 5.86941 12.9453 5.86941C12.8579 5.86941 12.7861 5.90063 12.7299 5.96307C12.6737 6.01926 12.6456 6.10043 12.6456 6.20658C12.6456 6.35643 12.7268 6.4813 12.8891 6.5812C13.0577 6.67486 13.3231 6.79037 13.6852 6.92773C14.1035 7.08383 14.447 7.23368 14.7154 7.37729C14.9902 7.52089 15.2274 7.72069 15.4272 7.97669C15.627 8.23268 15.7269 8.55424 15.7269 8.94135C15.7269 9.3472 15.627 9.71246 15.4272 10.0371C15.2274 10.3556 14.9371 10.6053 14.5562 10.7864C14.1753 10.9675 13.7227 11.058 13.1982 11.058Z" fill="white"/>
</g>
<defs>
<clipPath id="clip0_866_7422">
<rect width="16" height="16" fill="white"/>
</clipPath>
</defs>
</svg>
