<svg width="512" height="512" viewBox="0 0 512 512" fill="none" xmlns="http://www.w3.org/2000/svg">
<g clip-path="url(#clip0_866_7402)">
<path d="M412 0H100C44.7715 0 0 44.7715 0 100V412C0 467.228 44.7715 512 100 512H412C467.228 512 512 467.228 512 412V100C512 44.7715 467.228 0 412 0Z" fill="#0ABAB5"/>
<path d="M165.182 149.567V202.315H81.8654V231.686H141.806V281.736H81.8654V361.756H15.3317V149.567H165.182ZM254.252 311.406H318.388V361.756H187.718V149.567H254.252V311.406ZM422.342 363.854C396.968 363.854 375.989 357.96 359.405 346.171C343.021 334.183 334.13 316.701 332.732 293.724H403.461C404.46 305.912 409.855 312.005 419.645 312.005C423.241 312.005 426.239 311.206 428.636 309.608C431.234 307.81 432.532 305.112 432.532 301.516C432.532 296.521 429.835 292.525 424.44 289.528C419.046 286.331 410.654 282.735 399.265 278.739C385.679 273.943 374.39 269.248 365.399 264.653C356.608 260.057 349.015 253.364 342.622 244.573C336.228 235.781 333.131 224.493 333.331 210.706C333.331 196.92 336.828 185.232 343.821 175.641C351.013 165.851 360.704 158.459 372.892 153.464C385.279 148.468 399.165 145.971 414.55 145.971C440.524 145.971 461.104 151.965 476.289 163.953C491.673 175.941 499.765 192.824 500.564 214.603H428.936C428.736 208.609 427.238 204.313 424.44 201.715C421.643 199.118 418.246 197.819 414.25 197.819C411.453 197.819 409.156 198.818 407.357 200.816C405.559 202.615 404.66 205.212 404.66 208.609C404.66 213.404 407.257 217.4 412.452 220.597C417.847 223.594 426.338 227.29 437.927 231.686C451.314 236.681 462.303 241.476 470.894 246.071C479.685 250.667 487.278 257.06 493.671 265.252C500.065 273.444 503.262 283.734 503.262 296.121C503.262 309.108 500.065 320.797 493.671 331.186C487.278 341.376 477.987 349.368 465.799 355.162C453.611 360.957 439.126 363.854 422.342 363.854Z" fill="white"/>
</g>
<defs>
<clipPath id="clip0_866_7402">
<rect width="512" height="512" fill="white"/>
</clipPath>
</defs>
</svg>
