<svg width="411" height="240" viewBox="0 0 411 240" fill="none" xmlns="http://www.w3.org/2000/svg">
<path d="M191.075 0C193.147 5.20777 198.001 8.93408 203.731 9.21289C203.294 9.47486 203 9.95272 203 10.5V12.9658C203 13.7942 203.672 14.4658 204.5 14.4658C205.328 14.4658 206 13.7942 206 12.9658V10.5C206 9.94709 205.7 9.46522 205.255 9.20508C210.924 8.87249 215.715 5.16506 217.771 0H387C400.255 0 411 10.7452 411 24V105.638C405.636 107.313 401.594 112.122 400.878 118H397.062C396.233 118 395.562 118.672 395.562 119.5C395.562 120.328 396.233 121 397.062 121H400.806C401.258 127.213 405.412 132.36 411 134.105V216C411 229.255 400.255 240 387 240H218.137C216.253 234.046 210.826 229.744 204.423 229.744C198.02 229.744 192.592 234.046 190.709 240H24C10.7452 240 1.9329e-07 229.255 0 216V133.778C5.11386 131.776 8.83719 126.863 9.26367 121H13.9395L14.0928 120.992C14.849 120.915 15.4395 120.277 15.4395 119.5C15.4394 118.723 14.849 118.085 14.0928 118.008L13.9395 118H9.19141C8.51759 112.467 4.89636 107.881 0 105.964V24C3.09264e-06 10.7452 10.7452 0 24 0H191.075ZM204.5 223.534C203.672 223.534 203 224.206 203 225.034V227.5C203 228.328 203.672 229 204.5 229C205.328 229 206 228.328 206 227.5V225.034C206 224.206 205.328 223.534 204.5 223.534ZM204.5 213.671C203.672 213.671 203 214.342 203 215.171V220.103L203.008 220.256C203.085 221.012 203.723 221.603 204.5 221.603C205.277 221.603 205.915 221.012 205.992 220.256L206 220.103V215.171C206 214.342 205.328 213.671 204.5 213.671ZM204.5 203.807C203.672 203.807 203 204.478 203 205.307V210.238C203 211.067 203.672 211.738 204.5 211.738C205.328 211.738 206 211.067 206 210.238V205.307C206 204.478 205.328 203.807 204.5 203.807ZM204.5 193.943C203.672 193.943 203 194.615 203 195.443V200.375C203 201.203 203.672 201.875 204.5 201.875C205.328 201.875 206 201.203 206 200.375V195.443C206 194.615 205.328 193.943 204.5 193.943ZM204.5 184.079C203.672 184.079 203 184.751 203 185.579V190.512L203.008 190.665C203.085 191.421 203.723 192.012 204.5 192.012C205.277 192.012 205.915 191.421 205.992 190.665L206 190.512V185.579C206 184.751 205.328 184.079 204.5 184.079ZM204.5 174.216C203.672 174.216 203 174.887 203 175.716V180.647C203 181.476 203.672 182.147 204.5 182.147C205.328 182.147 206 181.476 206 180.647V175.716C206 174.887 205.328 174.216 204.5 174.216ZM204.5 164.353C203.672 164.353 203 165.024 203 165.853V170.784L203.008 170.938C203.085 171.694 203.723 172.284 204.5 172.284C205.277 172.284 205.915 171.694 205.992 170.938L206 170.784V165.853C206 165.024 205.328 164.353 204.5 164.353ZM204.5 154.488C203.672 154.488 203 155.16 203 155.988V160.921L203.008 161.074C203.085 161.83 203.723 162.421 204.5 162.421C205.277 162.421 205.915 161.83 205.992 161.074L206 160.921V155.988C206 155.16 205.328 154.488 204.5 154.488ZM204.5 144.625C203.672 144.625 203 145.297 203 146.125V151.057C203 151.885 203.672 152.557 204.5 152.557C205.328 152.557 206 151.885 206 151.057V146.125C206 145.297 205.328 144.625 204.5 144.625ZM204.5 134.762C203.672 134.762 203 135.433 203 136.262V141.193C203 142.022 203.672 142.693 204.5 142.693C205.328 142.693 206 142.022 206 141.193V136.262C206 135.433 205.328 134.762 204.5 134.762ZM204.5 124.897C203.672 124.897 203 125.569 203 126.397V131.329C203 132.158 203.672 132.829 204.5 132.829C205.328 132.829 206 132.158 206 131.329V126.397C206 125.569 205.328 124.897 204.5 124.897ZM204.5 115.034C203.672 115.034 203 115.706 203 116.534V118H198.037C197.209 118 196.537 118.672 196.537 119.5C196.537 120.328 197.209 121 198.037 121H203V121.466C203 122.294 203.672 122.966 204.5 122.966C205.328 122.966 206 122.294 206 121.466V116.534C206 115.706 205.328 115.034 204.5 115.034ZM18.915 118C18.0866 118 17.4151 118.672 17.415 119.5C17.415 120.328 18.0866 121 18.915 121H23.8906L24.0439 120.992C24.8002 120.915 25.3906 120.277 25.3906 119.5C25.3906 118.723 24.8002 118.085 24.0439 118.008L23.8906 118H18.915ZM28.8662 118C28.0378 118 27.3662 118.672 27.3662 119.5C27.3662 120.328 28.0378 121 28.8662 121H33.8418L33.9951 120.992C34.7514 120.915 35.3418 120.277 35.3418 119.5C35.3418 118.723 34.7513 118.085 33.9951 118.008L33.8418 118H28.8662ZM38.8174 118C37.989 118 37.3174 118.672 37.3174 119.5C37.3174 120.328 37.989 121 38.8174 121H43.793L43.9463 120.992C44.7026 120.915 45.293 120.277 45.293 119.5C45.293 118.723 44.7025 118.085 43.9463 118.008L43.793 118H38.8174ZM48.7686 118C47.9401 118 47.2686 118.672 47.2686 119.5C47.2686 120.328 47.9401 121 48.7686 121H53.7441C54.5725 121 55.2441 120.328 55.2441 119.5C55.2441 118.672 54.5724 118 53.7441 118H48.7686ZM58.7197 118C57.8913 118 57.2197 118.672 57.2197 119.5C57.2197 120.328 57.8913 121 58.7197 121H63.6953L63.8486 120.992C64.6049 120.915 65.1953 120.277 65.1953 119.5C65.1953 118.723 64.6049 118.085 63.8486 118.008L63.6953 118H58.7197ZM68.6709 118C67.8425 118 67.1709 118.672 67.1709 119.5C67.1709 120.328 67.8425 121 68.6709 121H73.6465L73.7998 120.992C74.5561 120.915 75.1465 120.277 75.1465 119.5C75.1465 118.723 74.5561 118.085 73.7998 118.008L73.6465 118H68.6709ZM78.6221 118C77.7937 118 77.1221 118.672 77.1221 119.5C77.1221 120.328 77.7936 121 78.6221 121H83.5977L83.751 120.992C84.5073 120.915 85.0977 120.277 85.0977 119.5C85.0976 118.723 84.5073 118.085 83.751 118.008L83.5977 118H78.6221ZM88.5732 118C87.7448 118 87.0733 118.672 87.0732 119.5C87.0732 120.328 87.7448 121 88.5732 121H93.5488C94.3772 121 95.0488 120.328 95.0488 119.5C95.0488 118.672 94.3772 118 93.5488 118H88.5732ZM98.5244 118C97.696 118 97.0244 118.672 97.0244 119.5C97.0244 120.328 97.696 121 98.5244 121H103.5L103.653 120.992C104.41 120.915 105 120.277 105 119.5C105 118.723 104.41 118.085 103.653 118.008L103.5 118H98.5244ZM108.476 118C107.647 118 106.976 118.672 106.976 119.5C106.976 120.328 107.647 121 108.476 121H113.451C114.28 121 114.951 120.328 114.951 119.5C114.951 118.672 114.28 118 113.451 118H108.476ZM118.427 118C117.598 118 116.927 118.672 116.927 119.5C116.927 120.328 117.598 121 118.427 121H123.402C124.231 121 124.902 120.328 124.902 119.5C124.902 118.672 124.231 118 123.402 118H118.427ZM128.378 118C127.55 118 126.878 118.672 126.878 119.5C126.878 120.328 127.55 121 128.378 121H133.354C134.182 121 134.854 120.328 134.854 119.5C134.854 118.672 134.182 118 133.354 118H128.378ZM138.329 118C137.501 118 136.829 118.672 136.829 119.5C136.829 120.328 137.501 121 138.329 121H143.305C144.133 121 144.805 120.328 144.805 119.5C144.805 118.672 144.133 118 143.305 118H138.329ZM148.28 118C147.452 118 146.78 118.672 146.78 119.5C146.78 120.328 147.452 121 148.28 121H153.256C154.084 121 154.756 120.328 154.756 119.5C154.756 118.672 154.084 118 153.256 118H148.28ZM158.231 118C157.403 118 156.731 118.672 156.731 119.5C156.731 120.328 157.403 121 158.231 121H163.207C164.035 121 164.707 120.328 164.707 119.5C164.707 118.672 164.035 118 163.207 118H158.231ZM168.183 118C167.354 118 166.683 118.672 166.683 119.5C166.683 120.328 167.354 121 168.183 121H173.158C173.987 121 174.658 120.328 174.658 119.5C174.658 118.672 173.987 118 173.158 118H168.183ZM178.134 118C177.306 118 176.634 118.672 176.634 119.5C176.634 120.328 177.306 121 178.134 121H183.109C183.938 121 184.609 120.328 184.609 119.5C184.609 118.672 183.938 118 183.109 118H178.134ZM188.085 118C187.257 118 186.585 118.672 186.585 119.5C186.585 120.328 187.257 121 188.085 121H193.062C193.89 121 194.562 120.328 194.562 119.5C194.562 118.672 193.89 118 193.062 118H188.085ZM207.988 118C207.16 118 206.488 118.672 206.488 119.5C206.488 120.328 207.16 121 207.988 121H212.964L213.117 120.992C213.873 120.915 214.464 120.277 214.464 119.5C214.464 118.723 213.873 118.085 213.117 118.008L212.964 118H207.988ZM217.939 118C217.111 118 216.439 118.672 216.439 119.5C216.439 120.328 217.111 121 217.939 121H222.915L223.068 120.992C223.825 120.915 224.415 120.277 224.415 119.5C224.415 118.723 223.825 118.085 223.068 118.008L222.915 118H217.939ZM227.891 118C227.062 118 226.391 118.672 226.391 119.5C226.391 120.328 227.062 121 227.891 121H232.866C233.695 121 234.366 120.328 234.366 119.5C234.366 118.672 233.695 118 232.866 118H227.891ZM237.842 118C237.013 118 236.342 118.672 236.342 119.5C236.342 120.328 237.013 121 237.842 121H242.817C243.646 121 244.317 120.328 244.317 119.5C244.317 118.672 243.646 118 242.817 118H237.842ZM247.793 118C246.965 118 246.293 118.672 246.293 119.5C246.293 120.328 246.965 121 247.793 121H252.769L252.922 120.992C253.678 120.915 254.269 120.277 254.269 119.5C254.269 118.723 253.678 118.085 252.922 118.008L252.769 118H247.793ZM257.744 118C256.916 118 256.244 118.672 256.244 119.5C256.244 120.328 256.916 121 257.744 121H262.72C263.548 121 264.22 120.328 264.22 119.5C264.22 118.672 263.548 118 262.72 118H257.744ZM267.695 118C266.867 118 266.195 118.672 266.195 119.5C266.195 120.328 266.867 121 267.695 121H272.671C273.499 121 274.171 120.328 274.171 119.5C274.171 118.672 273.499 118 272.671 118H267.695ZM277.646 118C276.818 118 276.146 118.672 276.146 119.5C276.146 120.328 276.818 121 277.646 121H282.622C283.45 121 284.122 120.328 284.122 119.5C284.122 118.672 283.45 118 282.622 118H277.646ZM287.598 118C286.769 118 286.098 118.672 286.098 119.5C286.098 120.328 286.769 121 287.598 121H292.573C293.402 121 294.073 120.328 294.073 119.5C294.073 118.672 293.402 118 292.573 118H287.598ZM297.549 118C296.72 118 296.049 118.672 296.049 119.5C296.049 120.328 296.72 121 297.549 121H302.524C303.353 121 304.024 120.328 304.024 119.5C304.024 118.672 303.353 118 302.524 118H297.549ZM307.5 118C306.672 118 306 118.672 306 119.5C306 120.328 306.672 121 307.5 121H312.476C313.304 121 313.976 120.328 313.976 119.5C313.976 118.672 313.304 118 312.476 118H307.5ZM317.451 118C316.623 118 315.951 118.672 315.951 119.5C315.951 120.328 316.623 121 317.451 121H322.427C323.255 121 323.927 120.328 323.927 119.5C323.927 118.672 323.255 118 322.427 118H317.451ZM327.402 118C326.574 118 325.902 118.672 325.902 119.5C325.902 120.328 326.574 121 327.402 121H332.378C333.206 121 333.878 120.328 333.878 119.5C333.878 118.672 333.206 118 332.378 118H327.402ZM337.354 118C336.525 118 335.854 118.672 335.854 119.5C335.854 120.328 336.525 121 337.354 121H342.329C343.158 121 343.829 120.328 343.829 119.5C343.829 118.672 343.158 118 342.329 118H337.354ZM347.305 118C346.476 118 345.805 118.672 345.805 119.5C345.805 120.328 346.476 121 347.305 121H352.28C353.109 121 353.78 120.328 353.78 119.5C353.78 118.672 353.109 118 352.28 118H347.305ZM357.257 118C356.428 118 355.757 118.672 355.757 119.5C355.757 120.328 356.428 121 357.257 121H362.232C363.061 121 363.732 120.328 363.732 119.5C363.732 118.672 363.061 118 362.232 118H357.257ZM367.208 118C366.38 118 365.708 118.672 365.708 119.5C365.708 120.328 366.38 121 367.208 121H372.184C373.012 121 373.684 120.328 373.684 119.5C373.684 118.672 373.012 118 372.184 118H367.208ZM377.159 118C376.331 118 375.659 118.672 375.659 119.5C375.659 120.328 376.331 121 377.159 121H382.135C382.963 121 383.635 120.328 383.635 119.5C383.635 118.672 382.963 118 382.135 118H377.159ZM387.11 118C386.282 118 385.61 118.672 385.61 119.5C385.61 120.328 386.282 121 387.11 121H392.086L392.239 120.992C392.996 120.915 393.586 120.277 393.586 119.5C393.586 118.723 392.996 118.085 392.239 118.008L392.086 118H387.11ZM204.5 105.171C203.672 105.171 203 105.842 203 106.671V111.603L203.008 111.756C203.085 112.512 203.723 113.103 204.5 113.103C205.277 113.103 205.915 112.512 205.992 111.756L206 111.603V106.671C206 105.842 205.328 105.171 204.5 105.171ZM204.5 95.3066C203.672 95.3066 203 95.9783 203 96.8066V101.738C203 102.567 203.672 103.238 204.5 103.238C205.328 103.238 206 102.567 206 101.738V96.8066C206 95.9783 205.328 95.3066 204.5 95.3066ZM204.5 85.4434C203.672 85.4434 203 86.1149 203 86.9434V91.875L203.008 92.0283C203.085 92.7847 203.723 93.375 204.5 93.375C205.277 93.375 205.915 92.7847 205.992 92.0283L206 91.875V86.9434C206 86.1149 205.328 85.4434 204.5 85.4434ZM204.5 75.5791C203.672 75.5791 203 76.2509 203 77.0791V82.0117L203.008 82.165C203.085 82.9213 203.723 83.5117 204.5 83.5117C205.277 83.5117 205.915 82.9213 205.992 82.165L206 82.0117V77.0791C206 76.2509 205.328 75.5791 204.5 75.5791ZM204.5 65.7158C203.672 65.7158 203 66.3874 203 67.2158V72.1475C203 72.9759 203.672 73.6475 204.5 73.6475C205.328 73.6475 206 72.9759 206 72.1475V67.2158C206 66.3874 205.328 65.7158 204.5 65.7158ZM204.5 55.8525C203.672 55.8525 203 56.5241 203 57.3525V62.2842L203.008 62.4375C203.085 63.1939 203.723 63.7842 204.5 63.7842C205.277 63.7842 205.915 63.1939 205.992 62.4375L206 62.2842V57.3525C206 56.5241 205.328 55.8525 204.5 55.8525ZM204.5 45.9883C203.672 45.9883 203 46.66 203 47.4883V52.4209L203.008 52.5742C203.085 53.3304 203.723 53.9209 204.5 53.9209C205.277 53.9209 205.915 53.3304 205.992 52.5742L206 52.4209V47.4883C206 46.66 205.328 45.9883 204.5 45.9883ZM204.5 36.125C203.672 36.125 203 36.7966 203 37.625V42.5566C203 43.3851 203.672 44.0566 204.5 44.0566C205.328 44.0566 206 43.3851 206 42.5566V37.625C206 36.7966 205.328 36.125 204.5 36.125ZM204.5 26.2617C203.672 26.2617 203 26.9333 203 27.7617V32.6934C203 33.5217 203.672 34.1934 204.5 34.1934C205.328 34.1934 206 33.5217 206 32.6934V27.7617C206 26.9333 205.328 26.2617 204.5 26.2617ZM204.5 16.3975C203.672 16.3975 203 17.0692 203 17.8975V22.8291C203 23.6575 203.672 24.3291 204.5 24.3291C205.328 24.3291 206 23.6575 206 22.8291V17.8975C206 17.0692 205.328 16.3975 204.5 16.3975Z" fill="white"/>
</svg>
