<svg width="237" height="60" viewBox="0 0 237 60" fill="none" xmlns="http://www.w3.org/2000/svg">
<g clip-path="url(#clip0_282_12003)">
<path d="M62.272 20.8597H86.2649V25.3853H76.8323V50.8314H71.642V25.3853H62.25V20.8579H62.2703L62.272 20.8597ZM85.2407 29.1285H89.676V33.3178H89.7589C89.9062 32.7253 90.1771 32.1537 90.5749 31.6031C91.4255 30.4228 92.5768 29.5078 93.9014 28.9595C94.5741 28.685 95.2904 28.5415 96.014 28.536C96.5558 28.536 96.9553 28.5569 97.1652 28.5796C97.3734 28.6005 97.5816 28.6423 97.8119 28.6632V33.2743C97.4722 33.2131 97.1306 33.1637 96.7877 33.1261C96.4472 33.0847 96.1047 33.0637 95.7618 33.0634C94.9662 33.0634 94.2145 33.2324 93.5035 33.5514C92.7925 33.8668 92.1848 34.353 91.6634 34.9681C91.1071 35.6559 90.681 36.445 90.4073 37.2946C90.0941 38.2251 89.9468 39.2812 89.9468 40.4888V50.8105H85.2204V29.1285H85.2407ZM119.546 50.8332H114.903V47.8079H114.818C114.233 48.9093 113.376 49.7771 112.225 50.4324C111.074 51.0876 109.902 51.4257 108.71 51.4257C105.887 51.4257 103.835 50.7286 102.582 49.3101C101.326 47.8933 100.698 45.7569 100.698 42.9007V29.1303H105.426V42.4354C105.426 44.3401 105.782 45.6941 106.515 46.4766C107.226 47.259 108.25 47.6616 109.547 47.6616C110.551 47.6616 111.367 47.5134 112.035 47.1945C112.706 46.8774 113.249 46.4766 113.647 45.9468C114.065 45.4397 114.358 44.8054 114.547 44.0857C114.734 43.3659 114.818 42.5835 114.818 41.7383V29.1512H119.546V50.8332ZM127.599 43.8748C127.747 45.2689 128.268 46.2448 129.169 46.8146C130.088 47.3653 131.176 47.6616 132.453 47.6616C132.893 47.6616 133.394 47.618 133.959 47.5553C134.523 47.4908 135.067 47.3427 135.549 47.1545C136.05 46.9628 136.446 46.6665 136.781 46.2866C137.096 45.9032 137.242 45.4188 137.222 44.8054C137.219 44.5207 137.158 44.2398 137.043 43.9809C136.927 43.7221 136.761 43.4912 136.553 43.3032C136.133 42.9024 135.612 42.6061 134.962 42.3517C134.237 42.0935 133.496 41.8885 132.744 41.7383C131.908 41.5693 131.071 41.3776 130.215 41.1876C129.352 40.9954 128.5 40.7552 127.662 40.4679C126.876 40.2087 126.135 39.8235 125.466 39.3265C124.814 38.8582 124.283 38.2338 123.917 37.5072C123.521 36.7665 123.332 35.8569 123.332 34.7573C123.332 33.5723 123.625 32.5999 124.19 31.7948C124.76 30.9964 125.497 30.3391 126.345 29.8709C127.257 29.3747 128.237 29.025 129.252 28.834C130.318 28.6441 131.344 28.5378 132.306 28.5378C133.414 28.5378 134.481 28.665 135.486 28.8985C136.46 29.113 137.388 29.5068 138.225 30.0608C139.041 30.5906 139.71 31.2877 140.255 32.1346C140.799 32.9798 141.134 34.0166 141.279 35.2225H136.343C136.113 34.0811 135.61 33.2987 134.796 32.917C133.98 32.5162 133.039 32.3245 131.992 32.3245C131.657 32.3245 131.259 32.3454 130.801 32.4099C130.358 32.4704 129.923 32.5767 129.502 32.7271C129.117 32.8731 128.767 33.1038 128.478 33.4032C128.337 33.5595 128.228 33.7427 128.156 33.9424C128.085 34.1422 128.052 34.3545 128.06 34.5673C128.06 35.1598 128.268 35.6251 128.666 35.9841C129.064 36.3431 129.587 36.6393 130.235 36.8937C130.884 37.1273 131.617 37.3381 132.453 37.5072C133.289 37.6762 134.146 37.8661 135.026 38.0578C135.883 38.2478 136.719 38.5022 137.557 38.7758C138.393 39.0511 139.124 39.4328 139.774 39.919C140.423 40.4052 140.946 40.9977 141.342 41.7174C141.74 42.4354 141.95 43.345 141.95 44.4028C141.95 45.6924 141.657 46.7728 141.069 47.6825C140.485 48.5712 139.732 49.3101 138.811 49.8608C137.847 50.4325 136.803 50.8463 135.715 51.0876C134.608 51.3382 133.479 51.4656 132.346 51.4675C131.077 51.4822 129.812 51.3258 128.583 51.0022C127.432 50.6851 126.428 50.2198 125.592 49.6081C124.765 48.9899 124.086 48.1867 123.604 47.259C123.123 46.3284 122.871 45.2062 122.831 43.9166H127.599V43.8748ZM143.204 29.132H146.781V22.6145H151.509V29.132H155.775V32.7044H151.511V44.2983C151.511 44.8036 151.531 45.2288 151.574 45.6087C151.614 45.9695 151.719 46.2866 151.866 46.5393C152.026 46.8048 152.269 47.0064 152.555 47.1109C152.87 47.2381 153.266 47.3026 153.812 47.3026C154.145 47.3026 154.48 47.3026 154.815 47.2799C155.151 47.259 155.484 47.2172 155.819 47.1318V50.8332C155.296 50.8977 154.773 50.9395 154.292 51.0022C153.786 51.0629 153.276 51.0914 152.765 51.0876C151.511 51.0876 150.507 50.9604 149.752 50.7286C149 50.4951 148.393 50.1361 147.975 49.6708C147.534 49.2056 147.264 48.634 147.096 47.9352C146.933 47.1493 146.842 46.3494 146.825 45.546V32.7445H143.248V29.1268H143.206L143.204 29.132ZM159.122 29.132H163.6V32.0701H163.684C164.351 30.8015 165.272 29.9127 166.464 29.3638C167.682 28.8062 169.002 28.5245 170.336 28.5378C172.028 28.5378 173.493 28.834 174.749 29.4474C176.003 30.0399 177.049 30.8659 177.886 31.922C178.722 32.9798 179.33 34.2066 179.748 35.6042C180.174 37.058 180.386 38.5695 180.376 40.088C180.376 41.5466 180.188 42.9634 179.81 44.3192C179.464 45.6269 178.89 46.8591 178.116 47.9561C177.356 49.0136 176.368 49.8754 175.23 50.4742C174.058 51.1085 172.699 51.4257 171.109 51.4257C170.414 51.4249 169.721 51.3607 169.037 51.234C168.355 51.1075 167.689 50.9023 167.051 50.6223C166.418 50.3503 165.826 49.9865 165.293 49.5419C164.766 49.1097 164.308 48.5965 163.933 48.0205H163.849V58.8511H159.122V29.1285V29.132ZM175.648 40.0026C175.649 39.038 175.522 38.0777 175.272 37.1482C175.04 36.2674 174.657 35.4365 174.141 34.6945C173.651 33.9887 173.016 33.4031 172.281 32.9798C171.491 32.5404 170.605 32.3149 169.708 32.3245C167.72 32.3245 166.213 33.0216 165.21 34.4192C164.206 35.815 163.703 37.6779 163.703 40.0026C163.703 41.1022 163.83 42.1182 164.101 43.0488C164.372 43.9793 164.749 44.7845 165.293 45.4606C165.817 46.1385 166.444 46.6665 167.177 47.0464C167.908 47.449 168.766 47.6389 169.728 47.6389C170.816 47.6389 171.715 47.4071 172.469 46.9628C173.198 46.5307 173.826 45.9388 174.309 45.2288C174.789 44.5091 175.147 43.704 175.355 42.7961C175.547 41.8781 175.646 40.9418 175.648 40.0026ZM183.994 20.8597H188.722V25.387H183.994V20.8597ZM183.994 29.1303H188.722V50.8332H183.994V29.1303ZM192.947 20.8597H197.675V50.8332H192.947V20.8597ZM212.171 51.4257C210.455 51.4257 208.928 51.1294 207.59 50.5596C206.308 50.0183 205.148 49.2116 204.181 48.1896C203.241 47.147 202.521 45.9152 202.066 44.5719C201.569 43.0891 201.322 41.5295 201.335 39.9608C201.335 38.3105 201.586 36.7892 202.066 35.3916C202.521 34.0489 203.241 32.8177 204.181 31.7756C205.1 30.7596 206.251 29.9772 207.59 29.4056C208.928 28.834 210.455 28.5378 212.171 28.5378C213.886 28.5378 215.413 28.834 216.752 29.4056C218.091 29.9772 219.22 30.7823 220.161 31.7756C221.101 32.8174 221.821 34.0487 222.274 35.3916C222.755 36.7874 223.005 38.3105 223.005 39.9608C223.005 41.6337 222.755 43.176 222.274 44.5719C221.821 45.9154 221.101 47.1473 220.161 48.1896C219.24 49.2055 218.091 49.988 216.752 50.5596C215.413 51.1294 213.886 51.4257 212.171 51.4257ZM212.171 47.6389C213.217 47.6389 214.137 47.4071 214.91 46.9628C215.664 46.5307 216.315 45.9305 216.815 45.2062C217.316 44.4882 217.671 43.6622 217.923 42.7525C218.154 41.8429 218.279 40.9123 218.279 39.9608C218.279 39.0302 218.154 38.1206 217.923 37.19C217.708 36.3073 217.332 35.4747 216.815 34.7364C216.314 34.0189 215.663 33.4263 214.91 33.0024C214.137 32.558 213.217 32.3245 212.171 32.3245C211.125 32.3245 210.204 32.558 209.43 33.0024C208.682 33.4328 208.033 34.0243 207.528 34.7364C207.018 35.4791 206.642 36.3102 206.419 37.19C206.187 38.0945 206.067 39.0254 206.062 39.9608C206.062 40.9123 206.189 41.8429 206.419 42.7525C206.649 43.6622 207.025 44.4882 207.528 45.2062C208.029 45.9259 208.657 46.5184 209.43 46.9628C210.204 47.428 211.125 47.6389 212.171 47.6389ZM224.387 29.132H227.964V22.6145H232.692V29.132H236.958V32.7044H232.692V44.2983C232.692 44.8036 232.712 45.2288 232.753 45.6087C232.795 45.9695 232.9 46.2866 233.047 46.5393C233.207 46.8051 233.45 47.0067 233.736 47.1109C234.051 47.2381 234.447 47.3026 234.993 47.3026C235.326 47.3026 235.661 47.3026 235.996 47.2799C236.332 47.259 236.665 47.2172 237 47.1318V50.8332C236.477 50.8977 235.954 50.9395 235.473 51.0022C234.967 51.0628 234.457 51.0914 233.946 51.0876C232.692 51.0876 231.686 50.9604 230.933 50.7286C230.181 50.4951 229.574 50.1361 229.156 49.6708C228.717 49.2056 228.445 48.634 228.277 47.9352C228.114 47.1492 228.024 46.3493 228.006 45.546V32.7445H224.429V29.1268H224.387V29.132Z" fill="white"/>
<path d="M56.7496 20.8577H35.0794L28.3858 0L21.6686 20.8595L0 20.8368L17.5498 33.7394L10.836 54.5745L28.3858 41.6928L45.9154 54.5745L39.2218 33.7394L56.7496 20.8577Z" fill="white"/>
<path d="M40.7267 38.4586L39.22 33.7412L28.3857 41.6947L40.7267 38.4586Z" fill="white"/>
</g>
<defs>
<clipPath id="clip0_282_12003">
<rect width="237" height="59.25" fill="white"/>
</clipPath>
</defs>
</svg>
