<svg width="100" height="39" viewBox="0 0 100 39" fill="none" xmlns="http://www.w3.org/2000/svg">
<g clip-path="url(#clip0_0_193)">
<path d="M0 0H100V39H0V0Z" fill="#D71920"/>
<path d="M18.5715 26.1443H14.7858C13.6429 26.1443 13.7144 25.2054 13.6429 24.3387V18.9942H15.3572C16.3572 18.9942 17.6429 18.7776 18.9286 19.4998C18.9286 19.4998 18.0001 17.3331 15.3572 17.3331H13.5715V15.5998C13.5715 15.5998 13.5715 14.1554 13.2144 13.6498H15.7144C17.8572 13.6498 19.5001 13.6498 21.2144 14.8054C21.2144 14.8054 20.8572 11.9165 16.7144 11.9165H8.71436C8.71436 11.9165 10.1429 13.1442 10.1429 15.5998V25.422C10.1429 27.8776 11.1429 27.9498 11.1429 27.9498H19.0001C20.7858 27.9498 21.4286 26.6498 21.4286 25.9276V24.9887C21.4286 24.9887 20.9286 26.1443 18.5715 26.1443ZM39.5001 25.3498V18.4887C39.5001 15.8165 37.3572 15.0942 35.7858 15.0942C33.6429 15.0942 33.0001 16.8998 32.7144 17.5498C32.2858 15.8887 30.5715 15.0942 29.2144 15.0942C26.7144 15.0942 26.0715 17.5498 26.0715 17.5498C26.0715 17.5498 26.0001 15.1665 23.9286 15.1665H21.9286C21.9286 15.1665 23.0715 15.672 23.0715 17.7665V25.2776C23.0715 27.8054 24.0715 27.8054 24.0715 27.8054H27.4286C27.3572 27.8054 26.1429 26.8665 26.1429 25.2776V18.4887C26.1429 18.1998 26.7144 17.1887 28.1429 17.1887C28.8572 17.1887 29.7858 18.0554 29.7858 18.9942V25.2776C29.7858 27.8054 30.7858 27.8054 30.7858 27.8054H34.1429C34.1429 27.8054 32.8572 27.0109 32.8572 25.3498V18.5609C32.9286 18.1998 33.4286 17.2609 34.6429 17.2609C35.6429 17.2609 36.5001 18.1276 36.4286 19.0665V25.3498C36.4286 27.9498 37.4286 27.8776 37.4286 27.8776H40.7858C40.7858 27.8776 39.5001 27.0109 39.5001 25.3498ZM45.3572 25.2776C45.3572 27.0109 46.6429 27.8776 46.6429 27.8776H43.2858C43.2858 27.8776 42.2858 27.8776 42.2858 25.3498V17.6942C42.2858 15.672 41.1429 15.1665 41.1429 15.1665H43.1429C43.8572 15.1665 45.2858 15.1665 45.2858 18.0554V25.2776H45.3572ZM55.5715 16.1776C55.5715 16.1776 55.2144 15.2387 53.9286 15.2387C51.7858 15.2387 51.2144 17.7665 51.2144 17.7665C51.0715 15.7442 50.5715 15.1665 49.0715 15.1665H47.1429C47.1429 15.1665 48.3572 15.672 48.3572 17.6942V25.3498C48.3572 27.8776 49.3572 27.8776 49.3572 27.8776H52.6429C52.5715 27.8776 51.3572 26.9387 51.3572 25.3498V19.0665C51.4286 18.4887 51.7144 18.0554 52.2144 17.7665C53.2858 17.0442 54.7858 17.2609 55.6429 18.272V16.1054L55.5715 16.1776ZM71.0715 16.6109C72.2144 16.6109 73.0715 17.1165 73.0715 17.1165V15.1665H70.2144V12.2776C70.2144 12.2776 69.5001 13.5776 68.0715 14.8054C67.0715 15.5998 65.0715 16.5387 65.0715 16.5387L67.2144 16.6109V25.422C67.2144 27.8776 68.2144 27.8776 68.2144 27.8776H71.5001C71.5001 27.8776 70.2144 27.0109 70.2144 25.422V16.6109H71.0715ZM79.1429 19.6442C79.6429 18.6331 80.1429 16.0331 78.2144 16.1054C76.0715 16.322 76.5001 22.172 76.5001 22.172C77.2144 21.3776 78.2858 21.2331 79.1429 19.6442ZM81.2143 20.4387C79.2858 22.3887 77.8572 22.0998 76.7144 23.5442C76.7144 23.5442 76.8572 25.4943 78.2858 26.2165C78.6351 26.3967 79.0173 26.5023 79.4087 26.5266C79.8001 26.551 80.1922 26.4937 80.5608 26.3582C80.9293 26.2227 81.2663 26.0119 81.5508 25.739C81.8352 25.4662 82.0611 25.137 82.2144 24.772V26.9387C82.2144 26.9387 81.3572 27.9498 78.6429 27.9498C75.3572 27.9498 73.1429 25.3498 73.1429 21.8109C73.1429 18.3442 75.0001 15.1665 78.3572 15.0942C81.7858 15.0942 83.6429 17.8387 81.2143 20.4387ZM43.7858 14.1554C44.6429 14.1554 45.3572 13.4331 45.3572 12.6387C45.3572 11.772 44.6429 11.0498 43.7858 11.0498C42.9286 11.0498 42.2858 11.772 42.2858 12.6387C42.2858 13.0218 42.4363 13.3892 42.7042 13.6601C42.9721 13.931 43.3355 14.0831 43.7144 14.0831M88.5715 24.4831C88.5715 25.3498 87.7144 26.5054 86.0001 26.5054C84.3572 26.5054 83.6429 24.6998 83.6429 24.6998V27.0109C83.6429 27.0109 84.8572 27.8776 86.7858 27.8776C89.0715 27.8776 91.3572 26.1443 91.2858 23.7609C91.2858 22.8943 90.9286 22.172 90.5001 21.522C89.7143 20.5109 88.3572 19.7165 87.2144 19.0665C85.7144 18.1998 85.9286 16.322 88.1429 16.4665C89.7858 16.6109 90.4286 18.1998 90.4286 18.1998V16.1054C90.4286 16.1054 89.2143 15.0942 87.2858 15.0942C85.2858 15.0942 83.5001 16.3942 83.5715 18.1276C83.5715 19.6442 84.2144 20.6554 85.4286 21.522C85.9286 21.8831 86.4286 22.2442 87.1429 22.6054C88.1429 23.1831 88.5001 23.8331 88.5715 24.4831ZM61.2858 17.9831C61.2858 19.2109 60.2144 19.7887 59.5001 20.1498C57.5715 20.9442 55.0001 21.9554 55.0001 24.8443C55.0001 26.7943 56.4286 27.9498 58.4286 27.9498C59.8572 27.9498 60.6429 27.1554 61.0715 26.4331C61.2858 27.8776 62.0001 27.8776 62.0001 27.8776H65.2858C65.2858 27.8776 64.0001 27.0109 64.0001 25.3498V18.1998C64.0001 16.4665 62.1429 15.1665 60.1429 15.1665C58.2144 15.1665 57.0001 16.1054 57.0001 16.1054V18.272C57.0001 18.272 57.7144 16.5387 59.4286 16.5387C60.8572 16.5387 61.2858 17.2609 61.2858 17.9831ZM59.4286 26.4331C58.4286 26.4331 57.7144 25.8554 57.7144 24.6998C57.7144 21.8109 60.2858 21.2331 61.0001 20.3665V25.7109C61.0001 25.7109 60.5001 26.4331 59.4286 26.4331Z" fill="#F0FBFA"/>
</g>
<defs>
<clipPath id="clip0_0_193">
<rect width="100" height="39" fill="white"/>
</clipPath>
</defs>
</svg>
