<svg width="97" height="48" viewBox="0 0 97 48" fill="none" xmlns="http://www.w3.org/2000/svg">
<path d="M5.7285 19.5429L7.78564 17.1429L3.3285 17.4857C2.77993 20.7771 1.49993 24.3429 0.928497 25.7143C3.67135 30.3771 9.84278 34.5143 12.5856 36L31.4428 26.4C19.0999 28.32 9.15707 22.6286 5.7285 19.5429Z" fill="#0ABAB5"/>
<path d="M47.2142 17.8286C37.0656 15.9086 26.5285 22.0571 22.5285 25.3714C28.837 25.6457 33.3856 25.0286 34.8713 24.6857C46.3913 20.2971 47.8999 18.2857 47.2142 17.8286Z" fill="#0ABAB5"/>
<path d="M28.1898 0C41.4445 0 52.1896 10.7453 52.1898 24C52.1896 37.2547 41.4445 48 28.1898 48C21.4484 47.9999 15.3547 45.2187 10.9964 40.7441L11.7327 40.0264L12.47 39.3086C16.4571 43.4021 22.0258 45.9422 28.1898 45.9424C40.3084 45.9424 50.133 36.1186 50.1331 24C50.133 11.8814 40.3084 2.05664 28.1898 2.05664C19.8683 2.05684 12.6271 6.68941 8.90656 13.5205L7.09991 12.5361C11.1663 5.07021 19.0853 0.000196894 28.1898 0Z" fill="#0ABAB5"/>
<path d="M67.5109 23.0345H64.3386V37.3789H58.4422V23.0345H56.3044V18.1381H58.4422V17.5864C58.4422 15.2187 59.1204 13.4256 60.4766 12.2073C61.8329 10.9659 63.8213 10.3453 66.4419 10.3453C66.8787 10.3453 67.2005 10.3568 67.4074 10.3798V15.3796C66.281 15.3106 65.488 15.4715 65.0282 15.8623C64.5684 16.2531 64.3386 16.9543 64.3386 17.9657V18.1381H67.5109V23.0345Z" fill="#0ABAB5"/>
<path d="M76.1779 11.8625V37.3789H70.2815V11.8625H76.1779Z" fill="#0ABAB5"/>
<path d="M88.2782 37.6547C86.6001 37.6547 85.1059 37.3674 83.7956 36.7927C82.4853 36.218 81.4509 35.4364 80.6923 34.4479C79.9337 33.4365 79.5084 32.3101 79.4165 31.0687H85.2439C85.3128 31.7354 85.6232 32.2756 86.1749 32.6894C86.7266 33.1031 87.4047 33.31 88.2093 33.31C88.9449 33.31 89.5081 33.1721 89.8989 32.8963C90.3127 32.5974 90.5195 32.2181 90.5195 31.7584C90.5195 31.2067 90.2322 30.8044 89.6575 30.5515C89.0828 30.2757 88.1518 29.9768 86.8645 29.655C85.4852 29.3332 84.3358 28.9998 83.4163 28.655C82.4968 28.2872 81.7037 27.724 81.0371 26.9654C80.3705 26.1838 80.0371 25.1379 80.0371 23.8276C80.0371 22.7242 80.336 21.7242 80.9337 20.8277C81.5543 19.9082 82.4509 19.1841 83.6232 18.6553C84.8186 18.1266 86.2323 17.8623 87.8645 17.8623C90.2782 17.8623 92.1747 18.46 93.5539 19.6553C94.9562 20.8507 95.7608 22.4368 95.9676 24.4138H90.5195C90.4276 23.7471 90.1288 23.2184 89.623 22.8276C89.1403 22.4368 88.4966 22.2414 87.6921 22.2414C87.0024 22.2414 86.4737 22.3794 86.1059 22.6552C85.7381 22.9081 85.5542 23.2644 85.5542 23.7241C85.5542 24.2759 85.8415 24.6896 86.4162 24.9655C87.0139 25.2413 87.9334 25.5172 89.1748 25.793C90.6 26.1608 91.7609 26.5287 92.6574 26.8965C93.5539 27.2413 94.3355 27.816 95.0022 28.6205C95.6918 29.4021 96.0481 30.4596 96.0711 31.7928C96.0711 32.9192 95.7493 33.9307 95.1056 34.8272C94.4849 35.7008 93.5769 36.3904 92.3816 36.8961C91.2092 37.4019 89.8414 37.6547 88.2782 37.6547Z" fill="#0ABAB5"/>
</svg>