<svg width="137" height="26" viewBox="0 0 137 26" fill="none" xmlns="http://www.w3.org/2000/svg">
<g clip-path="url(#clip0_0_64)">
<path d="M131.421 8.94655C127.853 8.94655 126.125 10.3134 125.983 12.8755H129.504C129.551 12.2069 129.935 11.7039 131.421 11.7039C132.74 11.7039 133.361 12.1359 133.361 12.7809C133.361 13.3548 133.001 13.5738 132.113 13.6684L129.811 13.9051C126.699 14.2424 125.285 15.5323 125.285 17.8815C125.285 20.059 126.628 21.7394 129.48 21.7394C131.421 21.7394 132.569 21.1181 133.575 19.8696V21.3785H136.882V13.4495C136.882 10.1241 134.941 8.94655 131.421 8.94655ZM133.433 16.6862C133.433 18.0057 132.184 18.988 130.267 18.988C129.332 18.988 128.782 18.556 128.782 17.7394C128.782 17.1181 129.166 16.5915 130.385 16.4199L132.468 16.13C132.829 16.0826 133.214 16.0116 133.427 15.9406V16.6862H133.433ZM119.776 13.8164C122.841 14.2247 124.373 15.1832 124.373 17.698C124.373 20.2365 122.575 21.7454 118.764 21.7454C114.616 21.7454 113.154 20.0945 113.083 17.6744H116.651C116.746 18.5619 117.373 18.9939 118.758 18.9939C120.172 18.9939 120.746 18.6566 120.746 17.988C120.746 17.3667 120.267 17.0767 119.018 16.911L117.746 16.7454C115.089 16.3844 113.551 15.3548 113.551 12.9584C113.551 10.6566 115.255 8.95838 118.823 8.95838C122.131 8.95838 123.9 10.2779 124.072 12.8874H120.551C120.433 12.1951 120.048 11.7631 118.823 11.7631C117.628 11.7631 117.172 12.1714 117.172 12.698C117.172 13.2247 117.462 13.5146 118.492 13.6566L119.776 13.8164ZM107.397 8.94655C110.539 8.94655 112.143 10.3371 112.143 14.3134V21.3844H108.527V14.485C108.527 12.8815 107.835 12.1596 106.32 12.1596C104.953 12.1596 104.143 12.8755 104.143 14.485V21.3844H100.527V9.3075H103.93V10.698C104.427 9.76312 105.456 8.94655 107.397 8.94655ZM93.5686 8.94655C90.0006 8.94655 88.2728 10.3134 88.1307 12.8755H91.6514C91.6988 12.2069 92.0834 11.7039 93.5686 11.7039C94.8881 11.7039 95.5094 12.1359 95.5094 12.7809C95.5094 13.3548 95.1485 13.5738 94.2609 13.6684L91.9591 13.9051C88.8467 14.2424 87.4325 15.5323 87.4325 17.8815C87.4325 20.059 88.7757 21.7394 91.6278 21.7394C93.5686 21.7394 94.7165 21.1181 95.7225 19.8696V21.3785H99.0301V13.4495C99.0301 10.1241 97.0893 8.94655 93.5686 8.94655ZM95.5804 16.6862C95.5804 18.0057 94.3319 18.988 92.4148 18.988C91.4798 18.988 90.9296 18.556 90.9296 17.7394C90.9296 17.1181 91.3142 16.5915 92.5331 16.4199L94.6159 16.13C94.9769 16.0826 95.3615 16.0116 95.5745 15.9406V16.6862H95.5804ZM81.681 8.94655C84.7461 8.94655 86.3556 10.3371 86.3556 14.3134V21.3844H82.7343V14.485C82.7343 12.8815 82.042 12.1596 80.5272 12.1596C79.1603 12.1596 78.3497 12.8755 78.3497 14.485V21.3844H74.7343V4.63886H78.3792V10.485C79.0005 9.59743 79.9828 8.94655 81.681 8.94655ZM70.9177 9.3075H73.6751V12.2542H70.9177V16.9525C70.9177 18.2483 71.5864 18.5797 72.6455 18.5797C73.0775 18.5797 73.6751 18.5087 73.6751 18.5087V21.4081C73.6751 21.4081 72.8349 21.5974 71.9473 21.5974C69.0479 21.5974 67.2964 20.2779 67.2964 17.3548V12.2483H65.4739V9.30158H67.2964V5.78679H70.9118V9.3075H70.9177ZM58.2668 8.85187C58.2668 5.9288 60.113 4.37258 63.0124 4.37258C63.9473 4.37258 64.5449 4.5146 64.5449 4.5146V7.43767C64.5449 7.43767 64.042 7.39034 63.61 7.39034C62.4858 7.39034 61.8822 7.77495 61.8822 8.82821V9.3075H64.5449V12.2542H61.8822V21.3844H58.2668V12.2542H56.4443V9.3075H58.2668V8.85187ZM51.8645 9.3075H55.4798V21.3844H52.0775V19.9939C51.5745 20.9288 50.5449 21.7454 48.6514 21.7454C45.5627 21.7454 43.9532 20.3548 43.9532 16.3785V9.3075H47.5686V16.2069C47.5686 17.8105 48.2609 18.5323 49.7225 18.5323C51.042 18.5323 51.8526 17.8164 51.8526 16.2069V9.3075H51.8645ZM35.9296 18.0057H43.1426V21.3844H32.0479V4.61519H35.9296V18.0057ZM12.6988 0.419922C5.7402 0.419922 0.118896 6.04122 0.118896 12.9998C0.118896 19.9584 5.7402 25.5797 12.6988 25.5797C19.6574 25.5797 25.2787 19.9584 25.2787 12.9998C25.2787 6.04122 19.6574 0.419922 12.6988 0.419922ZM12.6988 24.8223C6.17215 24.8223 0.876293 19.5264 0.876293 12.9998C0.876293 6.47318 6.16623 1.1714 12.6988 1.1714C19.2313 1.1714 24.5213 6.46726 24.5213 12.9939C24.5213 19.5205 19.2254 24.8223 12.6988 24.8223ZM17.5745 10.4968C17.4798 10.4968 17.397 10.4968 17.3556 10.5028C17.3023 10.5974 17.2254 10.7276 17.1071 10.9051C18.9059 10.9051 20.5449 11.0531 22.3497 11.3785L21.8408 11.8696C20.2077 11.5797 18.8526 11.4673 17.1248 11.4673H16.7579C16.6988 11.556 16.5627 11.7335 16.4266 11.8992C16.5804 11.8874 16.8763 11.8815 17.2846 11.8815C18.7047 11.8815 20.0361 11.988 21.4739 12.2187L20.965 12.7158C19.8704 12.5442 18.5272 12.4495 17.326 12.4495C16.9 12.4495 16.4148 12.4673 15.9769 12.4909C15.8763 12.6034 15.6219 12.8815 15.5449 12.9643C16.1189 12.9051 16.752 12.8755 17.5094 12.8755C18.5864 12.8755 19.61 12.9465 20.5804 13.0886L20.0716 13.5797C19.3792 13.4968 18.539 13.4436 17.7994 13.4436C15.8822 13.4436 14.3733 13.8578 12.8171 14.8105C14.3023 16.4081 16.7402 17.414 19.1011 17.414H19.3201L18.4976 18.2128C15.0952 17.5738 11.5094 16.0767 8.48576 14.0294C5.57452 12.0649 4.55677 11.485 2.28458 10.4791L2.26683 9.89329L3.80529 10.5501L4.326 10.1359L9.34375 12.4377L9.0183 12.698L6.44434 11.5797L6.1899 11.7809L7.52718 12.5264C8.65736 13.1536 9.51535 13.4377 10.3142 13.4377C12.0538 13.4377 13.61 12.2069 14.6159 10.0412C15.3733 9.94063 16.1781 9.89921 17.1544 9.89921C19.1485 9.89921 21.0834 10.0886 23.2727 10.5028L22.7402 11.0176C21.3733 10.7276 19.0538 10.4968 17.5745 10.4968Z" fill="#0D2B29"/>
</g>
<defs>
<clipPath id="clip0_0_64">
<rect width="137" height="26" fill="white"/>
</clipPath>
</defs>
</svg>
