<svg width="74" height="26" viewBox="0 0 74 26" fill="none" xmlns="http://www.w3.org/2000/svg">
<g clip-path="url(#clip0_165_5598)">
<path d="M3.74437 1.39087L0.0147705 9.82039H2.44197L3.13017 8.13161H7.13357L7.82177 9.82039H10.3082L6.57857 1.39087H3.74437ZM5.12817 3.34554L6.34917 6.29192H3.90717L5.12817 3.34554Z" fill="#1C5E59"/>
<path d="M10.5598 9.81319V1.38367L14.0156 1.39804L16.021 6.83088L17.982 1.38367H21.4082V9.81319H19.24V3.60423L16.9386 9.81319H15.0368L12.728 3.60423V9.81319H10.5598Z" fill="#1C5E59"/>
<path d="M22.8956 9.81319V1.38367H29.9774V3.26648H25.0934V4.71092H29.859V6.48593H25.086V7.98069H29.97V9.81319H22.8956Z" fill="#1C5E59"/>
<path d="M31.228 1.39087V9.82039H33.3962V6.82371H34.3064L36.9112 9.82039H39.5604L36.704 6.71591C37.8732 6.62249 39.0868 5.64516 39.0868 4.12885C39.0868 2.35383 37.6512 1.39805 36.0528 1.39805L31.228 1.39087ZM33.3962 3.27368H35.8752C36.4672 3.27368 36.9038 3.72641 36.9038 4.15759C36.9038 4.71812 36.3414 5.0415 35.9048 5.0415H33.3962V3.27368Z" fill="#1C5E59"/>
<path d="M42.1873 9.81319H39.9747V1.38367H42.1873V9.81319Z" fill="#1C5E59"/>
<path d="M47.4414 9.8132H46.9604C44.6442 9.8132 43.2456 8.04538 43.2456 5.63797C43.2456 3.17307 44.6368 1.39087 47.5524 1.39087H49.95V3.38866H47.471C46.287 3.38866 45.4434 4.28694 45.4434 5.65952C45.4434 7.29081 46.4054 7.97351 47.7818 7.97351H48.3516L47.4414 9.8132Z" fill="#1C5E59"/>
<path d="M52.1626 1.39086L48.433 9.81319H50.8602L51.5484 8.12441H55.5518L56.24 9.81319H58.719L54.9894 1.38367L52.1626 1.39086ZM53.539 3.34553L54.76 6.29191H52.318L53.539 3.34553Z" fill="#1C5E59"/>
<path d="M58.9706 9.81319V1.38367H61.7308L65.2532 6.67997V1.38367H67.4214V9.81319H64.75L61.1388 4.38036V9.81319H58.9706Z" fill="#1C5E59"/>
<path d="M15.8137 24.5594V16.1299H22.8955V18.0127H18.0115V19.4571H22.7845V21.2321H18.0115V22.7269H22.8955V24.5594H15.8137Z" fill="#1C5E59"/>
<path d="M50.4976 24.5594V16.1299H57.5794V18.0127H52.6954V19.4571H57.4462V21.2321H52.6954V22.7269H57.5794V24.5594H50.4976Z" fill="#1C5E59"/>
<path d="M23.1694 24.5594L26.6178 20.3985L23.088 16.1299H25.8186L27.9202 18.7672L30.0292 16.1299H32.6562L29.1708 20.341L32.6266 24.5522H29.896L27.8536 21.958L25.863 24.5522L23.1694 24.5594Z" fill="#1C5E59"/>
<path d="M32.8856 16.1371V24.5666H35.113V21.9077H37.3996C39.331 21.9077 40.7962 20.9088 40.7962 18.9757C40.7962 17.3731 39.6492 16.1443 37.6808 16.1443H32.8856V16.1371ZM35.113 18.0415H37.518C38.1396 18.0415 38.591 18.4151 38.591 19.0116C38.591 19.5721 38.147 19.9818 37.5106 19.9818H35.113V18.0415Z" fill="#1C5E59"/>
<path d="M41.7285 16.1299V24.5594H43.8967V21.5627H44.8069L47.4117 24.5594H50.0609L47.2045 21.4549C48.3737 21.3615 49.5873 20.3842 49.5873 18.8679C49.5873 17.0928 48.1517 16.1371 46.5533 16.1371L41.7285 16.1299ZM43.9041 18.0199H46.3831C46.9751 18.0199 47.4117 18.4726 47.4117 18.9038C47.4117 19.4643 46.8493 19.7877 46.4127 19.7877H43.9041V18.0199Z" fill="#1C5E59"/>
<path d="M58.5858 24.5594V22.7269H62.9296C63.5734 22.7269 63.8472 22.3892 63.8472 22.0227C63.8472 21.6705 63.5734 21.3112 62.9296 21.3112H60.9686C59.2666 21.3112 58.312 20.3051 58.312 18.7888C58.312 17.4378 59.1852 16.1371 61.716 16.1371H65.9414L65.0312 18.0343H61.3756C60.68 18.0343 60.4654 18.3936 60.4654 18.7313C60.4654 19.0835 60.7318 19.4643 61.2646 19.4643H63.3218C65.2236 19.4643 66.045 20.5135 66.045 21.8861C66.045 23.3593 65.1274 24.5666 63.2182 24.5666H58.5858V24.5594Z" fill="#1C5E59"/>
<path d="M66.5482 24.5594V22.7269H70.892C71.5358 22.7269 71.8096 22.3892 71.8096 22.0227C71.8096 21.6705 71.5358 21.3112 70.892 21.3112H68.931C67.229 21.3112 66.2744 20.3051 66.2744 18.7888C66.2744 17.4378 67.1476 16.1371 69.6784 16.1371H73.9038L72.9936 18.0343H69.338C68.6424 18.0343 68.4278 18.3936 68.4278 18.7313C68.4278 19.0835 68.6942 19.4643 69.227 19.4643H71.2842C73.186 19.4643 74.0074 20.5135 74.0074 21.8861C74.0074 23.3593 73.0898 24.5666 71.1806 24.5666H66.5482V24.5594Z" fill="#1C5E59"/>
</g>
<defs>
<clipPath id="clip0_165_5598">
<rect width="74" height="26" fill="white"/>
</clipPath>
</defs>
</svg>
