<svg width="90" height="15" viewBox="0 0 90 15" fill="none" xmlns="http://www.w3.org/2000/svg">
<g clip-path="url(#clip0_165_5583)">
<path d="M0 0.252319H3.91607C8.30353 0.252319 12.1778 1.743 12.1778 7.4766C12.1778 13.213 8.30353 14.7036 3.91607 14.7036H0V0.252319Z" fill="#1C5E59"/>
<path d="M2.87012 12.4261H4.46834C6.86708 12.4261 9.18214 10.6235 9.18214 7.47651C9.18214 4.32952 6.86708 2.52966 4.46834 2.52966H2.87012V12.4261Z" fill="white"/>
<path d="M13.3242 0.252231H16.1943V14.7035H13.3242V0.252231ZM25.4462 4.06727C24.4588 3.45719 23.3961 2.81123 22.2721 2.67044C21.2428 2.5407 20.1467 2.84712 20.1467 4.29087C20.1467 6.79742 26.4196 5.74014 26.4196 10.5848C26.4196 13.7512 23.9205 15.2722 21.0476 14.9548C19.4912 14.7808 18.5903 14.3143 17.3491 13.4862V10.5545C18.3337 11.0928 19.7757 12.0893 20.8858 12.2881C22.1047 12.5034 23.4268 12.1169 23.4268 10.8112C23.4268 8.05622 17.1538 9.19631 17.1538 4.41509C17.1538 1.18529 19.6362 0.00378418 22.1549 0.00378418C23.385 0.00378418 24.4867 0.470312 25.4462 1.29847V4.06727ZM46.0251 0.00378418C50.5158 0.00378418 53.4277 3.06796 53.4277 7.43786C53.4277 11.805 50.5548 14.9548 46.0251 14.9548C41.434 14.9548 38.4914 11.8685 38.4914 7.43786C38.4914 3.00447 41.4759 0.00378418 46.0251 0.00378418ZM52.4599 0.252231H55.5336L58.7217 7.88782L61.6978 0.252231H64.6767L59.0731 14.7035H58.0327L52.4599 0.252231ZM65.4242 0.252231H73.87V2.52966H68.2943V6.09073H73.3986V8.36815H68.2943V12.4261H73.9118V14.7035H65.4242V0.252231ZM74.6761 0.252231H77.7721C80.8486 0.252231 84.5165 0.147331 84.5165 4.16388C84.5165 5.8616 83.3896 7.26947 81.5627 7.51791V7.55932C82.3409 7.62005 82.7927 8.40956 83.08 9.05L85.3755 14.7008H82.1791L80.4581 10.1901C80.0481 9.11349 79.6799 8.69942 78.4694 8.69942H77.5462V14.7035H74.6761V0.252231Z" fill="#1C5E59"/>
<path d="M77.5461 6.42207H78.4889C79.903 6.42207 81.5236 6.21503 81.5236 4.41241C81.5236 2.67329 79.9254 2.52698 78.4889 2.52698H77.5461V6.42207Z" fill="white"/>
<path d="M37.7663 13.2598C37.0689 14.1542 35.3285 14.7035 34.1542 14.7863C29.7054 15.0955 26.7153 12.6248 26.7153 7.73873C26.7153 2.79188 29.3205 -0.0762934 34.1737 0.147309C35.1165 0.191477 36.6589 0.506176 37.7021 1.35089V4.13902C36.486 3.38816 35.2253 2.85538 34.157 2.81121C31.206 2.69251 29.7082 4.57242 29.7082 7.53169C29.7082 10.4716 31.1056 12.1252 34.1598 12.012C35.3313 11.9678 37.1303 11.0155 37.7635 10.491V13.2598H37.7663Z" fill="#1C5E59"/>
<path d="M88.7421 2.68432C89.4368 2.68432 90 2.12692 90 1.43933C90 0.751739 89.4368 0.194336 88.7421 0.194336C88.0473 0.194336 87.4841 0.751739 87.4841 1.43933C87.4841 2.12692 88.0473 2.68432 88.7421 2.68432Z" fill="#1C5E59"/>
<path d="M89.6933 1.43928C89.6933 0.856807 89.2693 0.434448 88.7421 0.434448C88.215 0.434448 87.791 0.854047 87.791 1.43928C87.791 2.02175 88.215 2.44134 88.7421 2.44134C89.2665 2.44134 89.6933 2.01899 89.6933 1.43928Z" fill="white"/>
<path d="M88.2567 0.727051H88.7866C89.1297 0.727051 89.311 0.842993 89.311 1.14113C89.311 1.38129 89.1716 1.5 88.9401 1.51932L89.3222 2.13768H89.0516L88.6807 1.53036H88.5189V2.13768H88.2539L88.2567 0.727051Z" fill="#1C5E59"/>
<path d="M88.5217 1.33162H88.756C88.9122 1.33162 89.0489 1.30954 89.0489 1.12183C89.0489 0.953434 88.8955 0.928589 88.7588 0.928589H88.5217V1.33162Z" fill="white"/>
</g>
<defs>
<clipPath id="clip0_165_5583">
<rect width="90" height="15" fill="white"/>
</clipPath>
</defs>
</svg>
