<svg width="50" height="30" viewBox="0 0 50 30" fill="none" xmlns="http://www.w3.org/2000/svg">
<g clip-path="url(#clip0_165_5593)">
<path fill-rule="evenodd" clip-rule="evenodd" d="M49.973 15.0002C49.973 6.77496 43.354 0.106855 35.1895 0.106855C31.6465 0.106855 28.4226 1.35596 25.8765 3.44964C27.8187 5.33862 29.3013 7.70371 30.0968 10.3771H28.8685C28.0986 8.00031 26.7464 5.90319 24.9887 4.22035C23.2193 5.9179 21.895 8.03075 21.1342 10.37H19.9057C20.6902 7.74556 22.1279 5.36685 24.0822 3.45995C21.5423 1.38774 18.3338 0.106567 14.8107 0.106567C6.64622 0.106567 0.0268555 6.77468 0.0268555 14.9999C0.0268555 23.2249 6.64593 29.893 14.8107 29.893C18.3335 29.893 21.5423 28.6119 24.0822 26.5397C22.1551 24.6564 20.6977 22.2882 19.9057 19.6299H21.1342C21.895 21.9691 23.2193 24.082 24.9887 25.7796C26.7467 24.0964 28.0986 21.9996 28.8685 19.6225H30.0968C29.3013 22.2959 27.8187 24.6613 25.8765 26.55C28.4226 28.6434 31.6465 29.8928 35.1895 29.8928C43.354 29.893 49.973 23.2249 49.973 15.0002Z" fill="#1C5E59"/>
<path fill-rule="evenodd" clip-rule="evenodd" d="M39.1078 18.4888L40.1286 12.9782H41.4191L41.5541 13.5213C41.7854 13.2493 42.2285 12.9782 42.9796 12.9782L42.5755 14.4137C42.2092 14.4137 41.5157 14.3172 41.073 15.9663L40.6106 18.4888H39.1078ZM19.3267 11.5777H20.8142L20.5089 13.0378H21.3095L21.0429 14.2288H20.2802L19.8604 16.457C19.784 16.8799 19.8223 17.2644 20.6806 17.1298L20.5851 18.2438C20.2608 18.4551 19.8223 18.5132 19.4788 18.5132C19.1357 18.5132 18.0103 18.3013 18.2968 16.8031L19.3267 11.5777ZM25.7724 16.0347C25.9441 15.1506 26.3448 12.961 23.7322 12.961C21.3291 12.961 21.0242 15.3622 20.9671 15.7078C20.9099 16.0539 20.8719 18.4934 23.4461 18.4934C24.0755 18.5129 24.9909 18.4359 25.3535 18.2435L25.5823 17.1106C25.3535 17.1676 24.495 17.2449 23.9036 17.2449C23.3128 17.2449 22.3593 17.2835 22.5307 16.0347H25.7724ZM17.916 14.2674L18.259 13.1529C17.5534 12.884 17.0006 12.9419 16.7906 12.9419C16.5806 12.9419 14.795 12.9198 14.5213 14.2482C14.3116 15.2666 14.6816 15.6877 15.0363 15.8426C15.6086 16.0925 15.9329 16.323 16.2381 16.4768C16.6155 16.6669 16.5462 17.3027 16.0472 17.3027C15.8181 17.3027 14.8268 17.4178 14.0831 17.1679L13.8734 18.3013C14.56 18.4937 15.1124 18.4937 15.628 18.4937C15.99 18.4937 17.7637 18.5899 18.0112 16.9374C18.1323 16.1318 17.7824 15.7653 17.4962 15.5932C17.2103 15.4009 16.7335 15.132 16.4285 14.9972C16.1233 14.8629 15.8945 14.3444 16.4476 14.1907C16.7906 14.152 17.496 14.152 17.916 14.2674ZM8.26659 18.4934L9.50594 11.8465H7.06531L5.25331 15.881L4.96713 11.8465H2.58363L1.30591 18.4934H2.79308L3.70845 13.6908L4.10916 18.4934H5.52017L7.59902 13.8062L6.72173 18.4934H8.26659ZM9.90608 13.134L9.67731 14.325C10.0399 14.2869 11.0124 14.1331 11.5271 14.152C12.0423 14.1712 12.6141 14.0945 12.4425 14.9204C12.0611 14.9591 9.39141 14.5362 8.97223 16.8412C8.80058 17.9752 9.77279 18.5512 10.5356 18.5132C11.2983 18.4745 11.5081 18.3783 11.7752 18.1859L11.9659 18.4934H13.3576L13.949 15.4968C14.1016 14.7475 14.3491 12.9416 11.8514 12.9416C11.3938 12.961 10.8791 12.9416 9.90608 13.134ZM34.0105 13.3833C33.6286 13.1526 33.3623 13.1145 32.8661 13.1145C32.3705 13.1145 31.2641 13.5918 31.055 14.9396C30.8069 16.534 31.8936 17.3213 33.4194 16.8031L33.8579 18.1479C33.3623 18.3783 32.8661 18.4934 32.0462 18.4934C30.5014 18.4934 28.8235 17.1106 29.5863 14.3055C30.1487 12.2387 31.9132 11.4818 32.9428 11.5201C34.1629 11.5659 34.6019 11.9811 34.9833 12.4039L34.0105 13.3833ZM46.692 13.6138C46.4055 13.4028 46.2347 12.961 45.5285 12.961C44.7086 12.961 43.4309 12.8073 42.7065 15.3047C42.2219 16.9738 43.2021 18.4937 44.2695 18.4937C44.7657 18.4748 45.2614 18.2632 45.566 18.0519L45.7576 18.4937H47.359L48.656 11.5012H47.0918L46.692 13.6138ZM35.0785 13.134L34.8492 14.325C35.2121 14.2869 36.184 14.1331 36.6993 14.152C37.2142 14.1712 37.7866 14.0945 37.6147 14.9204C37.2333 14.9591 34.5636 14.5362 34.1444 16.8412C33.9725 17.9752 34.9447 18.5512 35.7074 18.5132C36.4708 18.4745 36.6799 18.3783 36.9474 18.1859L37.1383 18.4934H38.5297L39.1214 15.4968C39.274 14.7475 39.5216 12.9416 37.0232 12.9416C36.566 12.961 36.051 12.9416 35.0785 13.134Z" fill="white"/>
<path fill-rule="evenodd" clip-rule="evenodd" d="M22.6259 15.0358H24.4757C24.5712 14.4978 24.3996 14.0366 23.8085 14.0366C23.2171 14.0366 22.7976 14.3441 22.6259 15.0358ZM12.195 16.0347C11.9469 15.9955 11.3939 15.8423 10.917 16.1689C10.4401 16.4956 10.3069 17.0714 10.8028 17.2643C11.2799 17.449 11.9844 17.13 12.0805 16.6296L12.195 16.0347ZM46.158 15.8615C46.3107 15.3622 46.2274 14.7386 46.0626 14.5173C45.6053 13.9026 44.5529 14.3885 44.2321 15.5932C44.0224 16.3805 44.4802 16.976 44.9949 16.976C45.5482 16.9757 45.8912 16.534 46.158 15.8615ZM37.3672 16.0347C37.1191 15.9955 36.5663 15.8423 36.0895 16.1689C35.6126 16.4956 35.479 17.0714 35.9752 17.2643C36.4527 17.449 37.1569 17.13 37.2524 16.6296L37.3672 16.0347Z" fill="#1C5E59"/>
<path fill-rule="evenodd" clip-rule="evenodd" d="M25.8149 18.4934L26.8258 13.0377H28.1035L28.2368 13.5757C28.4662 13.3066 28.9047 13.0377 29.6478 13.0377L29.2664 14.4786C28.9047 14.4786 28.1984 14.3636 27.7599 15.9957L27.3027 18.4937L25.8149 18.4934Z" fill="white"/>
</g>
<defs>
<clipPath id="clip0_165_5593">
<rect width="50" height="30" fill="white"/>
</clipPath>
</defs>
</svg>
