<svg width="104" height="26" viewBox="0 0 104 26" fill="none" xmlns="http://www.w3.org/2000/svg">
<g clip-path="url(#clip0_165_5579)">
<path d="M27.3261 9.15347H37.8546V11.1394H33.7154V22.3057H31.4378V11.1394H27.3164V9.15271H27.3253L27.3261 9.15347ZM37.4052 12.782H39.3514V14.6204H39.3878C39.4525 14.3604 39.5713 14.1095 39.7459 13.8679C40.1192 13.35 40.6244 12.9485 41.2056 12.7078C41.5008 12.5874 41.8152 12.5244 42.1327 12.522C42.3704 12.522 42.5457 12.5312 42.6378 12.5411C42.7292 12.5503 42.8206 12.5687 42.9216 12.5778V14.6012C42.7725 14.5744 42.6227 14.5527 42.4722 14.5362C42.3228 14.518 42.1725 14.5089 42.022 14.5087C41.6729 14.5087 41.343 14.5829 41.031 14.7228C40.719 14.8612 40.4523 15.0746 40.2235 15.3445C39.9794 15.6464 39.7925 15.9926 39.6723 16.3654C39.5349 16.7738 39.4703 17.2372 39.4703 17.7671V22.2965H37.3962V12.782H37.4052ZM52.4591 22.3064H50.4215V20.9789H50.3843C50.1273 21.4622 49.7514 21.843 49.2463 22.1305C48.7411 22.4181 48.2271 22.5664 47.7041 22.5664C46.465 22.5664 45.5647 22.2605 45.015 21.6381C44.4638 21.0164 44.1882 20.0788 44.1882 18.8255V12.7828H46.263V18.6213C46.263 19.4571 46.419 20.0513 46.7406 20.3947C47.0526 20.738 47.5021 20.9147 48.0711 20.9147C48.5116 20.9147 48.8697 20.8497 49.1631 20.7097C49.4573 20.5705 49.6957 20.3946 49.8703 20.1622C50.0538 19.9396 50.1823 19.6613 50.2655 19.3455C50.3472 19.0297 50.3843 18.6863 50.3843 18.3154V12.7919H52.4591V22.3064ZM55.9929 19.2529C56.0576 19.8647 56.2864 20.2929 56.6816 20.543C57.0849 20.7847 57.5626 20.9147 58.1227 20.9147C58.3158 20.9147 58.5357 20.8955 58.7838 20.868C59.0312 20.8397 59.2697 20.7747 59.4814 20.6921C59.7013 20.608 59.8751 20.478 60.0222 20.3113C60.1604 20.1431 60.2242 19.9305 60.2153 19.6613C60.2141 19.5364 60.1874 19.4131 60.1368 19.2995C60.0863 19.186 60.013 19.0846 59.9219 19.0021C59.7377 18.8262 59.5089 18.6962 59.2236 18.5846C58.9058 18.4713 58.5806 18.3813 58.2505 18.3154C57.8835 18.2412 57.5165 18.1571 57.1406 18.0738C56.762 17.9894 56.388 17.884 56.0204 17.7579C55.6756 17.6442 55.3505 17.4752 55.0569 17.2571C54.7709 17.0516 54.5376 16.7776 54.3772 16.4587C54.2034 16.1337 54.1202 15.7345 54.1202 15.252C54.1202 14.732 54.2487 14.3053 54.4968 13.952C54.7471 13.6017 55.0701 13.3132 55.4425 13.1078C55.8426 12.89 56.2727 12.7366 56.7179 12.6528C57.1859 12.5694 57.6361 12.5228 58.0581 12.5228C58.5446 12.5228 59.0126 12.5786 59.4539 12.6811C59.8811 12.7752 60.2883 12.948 60.6558 13.1911C61.0139 13.4236 61.3073 13.7295 61.5465 14.1011C61.785 14.472 61.9321 14.927 61.996 15.4562H59.8298C59.7288 14.9553 59.5081 14.6119 59.1508 14.4445C58.7927 14.2686 58.3797 14.1845 57.9206 14.1845C57.7736 14.1845 57.599 14.1937 57.3977 14.2219C57.2037 14.2485 57.0128 14.2951 56.8279 14.3611C56.6589 14.4252 56.5055 14.5264 56.3785 14.6578C56.3168 14.7264 56.2688 14.8068 56.2373 14.8944C56.2059 14.9821 56.1915 15.0753 56.195 15.1687C56.195 15.4287 56.2863 15.6328 56.4609 15.7904C56.6355 15.9479 56.865 16.0779 57.1495 16.1895C57.4341 16.292 57.7557 16.3845 58.1227 16.4587C58.4897 16.5329 58.8656 16.6162 59.2518 16.7004C59.6277 16.7837 59.9947 16.8954 60.3624 17.0154C60.7294 17.1362 61.0503 17.3037 61.3356 17.5171C61.6201 17.7304 61.8496 17.9904 62.0234 18.3062C62.198 18.6213 62.2901 19.0205 62.2901 19.4847C62.2901 20.0505 62.1616 20.5247 61.9038 20.9238C61.6476 21.3138 61.317 21.6381 60.9129 21.8797C60.4898 22.1306 60.0314 22.3122 59.5542 22.4181C59.0686 22.528 58.573 22.5839 58.0759 22.5848C57.5191 22.5912 56.964 22.5226 56.4245 22.3806C55.9194 22.2414 55.4789 22.0372 55.1119 21.7688C54.7492 21.4975 54.451 21.1451 54.2398 20.738C54.0288 20.3296 53.9181 19.8372 53.9003 19.2713H55.9929V19.2529ZM62.8406 12.7835H64.4102V9.92353H66.485V12.7835H68.357V14.3512H66.4858V19.4388C66.4858 19.6605 66.4947 19.8471 66.5133 20.0138C66.5311 20.1721 66.5771 20.3113 66.6418 20.4222C66.712 20.5387 66.8186 20.6271 66.9441 20.673C67.0823 20.7288 67.2561 20.7571 67.4953 20.7571C67.6417 20.7571 67.7888 20.7571 67.9358 20.7472C68.0829 20.738 68.2293 20.7197 68.3764 20.6822V22.3064C68.1468 22.3347 67.9173 22.3531 67.7063 22.3806C67.4839 22.4072 67.2601 22.4197 67.0362 22.4181C66.4858 22.4181 66.0453 22.3622 65.714 22.2605C65.3841 22.1581 65.1174 22.0005 64.934 21.7964C64.7408 21.5922 64.6219 21.3414 64.5484 21.0347C64.4769 20.6899 64.4371 20.3388 64.4296 19.9863V14.3688H62.8599V12.7812H62.8413L62.8406 12.7835ZM69.8257 12.7835H71.7905V14.0728H71.8277C72.1204 13.5161 72.5245 13.1261 73.0474 12.8852C73.582 12.6406 74.1614 12.517 74.7464 12.5228C75.4892 12.5228 76.1318 12.6528 76.683 12.9219C77.2334 13.1819 77.6925 13.5444 78.0595 14.0078C78.4265 14.472 78.6932 15.0104 78.8766 15.6237C79.0636 16.2616 79.1565 16.9249 79.1522 17.5912C79.1522 18.2313 79.0698 18.853 78.9041 19.4479C78.752 20.0218 78.5 20.5625 78.1605 21.0439C77.8269 21.5079 77.3933 21.8861 76.8939 22.1489C76.3799 22.4272 75.7834 22.5664 75.0858 22.5664C74.7809 22.5661 74.4767 22.5379 74.1766 22.4823C73.8773 22.4268 73.585 22.3367 73.3052 22.2139C73.0273 22.0945 72.7674 21.9349 72.5334 21.7398C72.3024 21.5501 72.1012 21.3249 71.9369 21.0722H71.8997V25.8248H69.8257V12.782V12.7835ZM77.0774 17.5538C77.0778 17.1305 77.0224 16.7091 76.9125 16.3012C76.8108 15.9147 76.6427 15.55 76.4163 15.2245C76.2014 14.9147 75.9226 14.6578 75.5999 14.472C75.2533 14.2792 74.8647 14.1803 74.4708 14.1845C73.5986 14.1845 72.9375 14.4904 72.497 15.1037C72.0565 15.7162 71.8358 16.5337 71.8358 17.5538C71.8358 18.0363 71.8915 18.4821 72.0104 18.8905C72.1293 19.2988 72.2949 19.6521 72.5334 19.9488C72.7637 20.2463 73.0385 20.478 73.3602 20.6447C73.6811 20.8214 74.0577 20.9047 74.4797 20.9047C74.9573 20.9047 75.3518 20.803 75.6824 20.608C76.0025 20.4184 76.2782 20.1586 76.4898 19.8471C76.7008 19.5313 76.8576 19.178 76.9489 18.7796C77.0334 18.3768 77.0765 17.9659 77.0774 17.5538ZM80.7397 9.15347H82.8145V11.1402H80.7397V9.15347ZM80.7397 12.7828H82.8145V22.3064H80.7397V12.7828ZM84.6687 9.15347H86.7435V22.3064H84.6687V9.15347ZM93.1046 22.5664C92.3513 22.5664 91.6813 22.4364 91.0944 22.1864C90.5318 21.9488 90.0226 21.5948 89.5983 21.1464C89.1858 20.6888 88.8699 20.1483 88.6705 19.5588C88.4521 18.9081 88.3436 18.2238 88.3496 17.5354C88.3496 16.8112 88.4595 16.1437 88.6705 15.5304C88.87 14.9412 89.1859 14.4009 89.5983 13.9436C90.0017 13.4978 90.5068 13.1544 91.0944 12.9036C91.6813 12.6528 92.3513 12.5228 93.1046 12.5228C93.8571 12.5228 94.5272 12.6528 95.1147 12.9036C95.7023 13.1544 96.1978 13.5077 96.6109 13.9436C97.0233 14.4008 97.3389 14.9411 97.5379 15.5304C97.7489 16.1429 97.8589 16.8112 97.8589 17.5354C97.8589 18.2695 97.7489 18.9463 97.5379 19.5588C97.3391 20.1484 97.0234 20.689 96.6109 21.1464C96.2067 21.5922 95.7023 21.9355 95.1147 22.1864C94.5272 22.4364 93.8571 22.5664 93.1046 22.5664ZM93.1046 20.9047C93.5637 20.9047 93.967 20.803 94.3065 20.608C94.6374 20.4184 94.923 20.155 95.1422 19.8372C95.3621 19.5221 95.5181 19.1597 95.6288 18.7605C95.7298 18.3613 95.7848 17.9529 95.7848 17.5354C95.7848 17.1271 95.7298 16.7279 95.6288 16.3195C95.5342 15.9322 95.3691 15.5668 95.1422 15.2428C94.9225 14.928 94.6369 14.668 94.3065 14.4819C93.967 14.2869 93.5637 14.1845 93.1046 14.1845C92.6455 14.1845 92.2414 14.2869 91.9019 14.4819C91.5737 14.6708 91.2889 14.9303 91.0669 15.2428C90.8433 15.5688 90.6784 15.9335 90.5803 16.3195C90.4787 16.7164 90.426 17.125 90.4236 17.5354C90.4236 17.9529 90.4793 18.3613 90.5803 18.7605C90.6814 19.1597 90.8463 19.5221 91.0669 19.8372C91.2868 20.153 91.5624 20.413 91.9019 20.608C92.2414 20.8122 92.6455 20.9047 93.1046 20.9047ZM98.465 12.7835H100.035V9.92353H102.109V12.7835H103.981V14.3512H102.109V19.4388C102.109 19.6605 102.118 19.8471 102.136 20.0138C102.155 20.1721 102.201 20.3113 102.265 20.4222C102.336 20.5388 102.442 20.6273 102.568 20.673C102.706 20.7288 102.88 20.7571 103.119 20.7571C103.265 20.7571 103.412 20.7571 103.56 20.7472C103.707 20.738 103.853 20.7197 104 20.6822V22.3064C103.771 22.3347 103.541 22.3531 103.33 22.3806C103.108 22.4072 102.884 22.4197 102.66 22.4181C102.109 22.4181 101.668 22.3622 101.338 22.2605C101.008 22.1581 100.741 22.0005 100.558 21.7964C100.365 21.5922 100.246 21.3414 100.172 21.0347C100.101 20.6898 100.061 20.3388 100.053 19.9863V14.3688H98.4836V12.7812H98.465V12.7835Z" fill="#1C5E59"/>
<path d="M24.9028 9.15276H15.3935L12.4562 0L9.50857 9.15353L0 9.14359L7.7012 14.8055L4.75503 23.9483L12.4562 18.2956L20.1485 23.9483L17.2113 14.8055L24.9028 9.15276Z" fill="#1C5E59"/>
<path d="M17.8717 16.8763L17.2106 14.8063L12.4563 18.2964L17.8717 16.8763Z" fill="#1C5E59"/>
</g>
<defs>
<clipPath id="clip0_165_5579">
<rect width="104" height="26" fill="white"/>
</clipPath>
</defs>
</svg>
