<svg width="49" height="16" viewBox="0 0 49 16" fill="none" xmlns="http://www.w3.org/2000/svg">
<g clip-path="url(#clip0_165_5615)">
<path d="M31.9083 0.0246582C28.4328 0.0246582 25.3267 1.83666 25.3267 5.18371C25.3267 9.02256 30.8352 9.28769 30.8352 11.2165C30.8352 12.0286 29.9101 12.7555 28.3294 12.7555C26.0867 12.7555 24.4104 11.7398 24.4104 11.7398L23.693 15.1179C23.693 15.1179 25.6241 15.9759 28.1878 15.9759C31.9877 15.9759 34.9782 14.0752 34.9782 10.6705C34.9782 6.61379 29.4466 6.35655 29.4466 4.56673C29.4466 3.93053 30.2061 3.23373 31.7819 3.23373C33.5601 3.23373 35.0105 3.97242 35.0105 3.97242L35.7127 0.710133C35.7127 0.710133 34.1339 0.0246582 31.9079 0.0246582H31.9083ZM0.108816 0.271055L0.0245361 0.763355C0.0245361 0.763355 1.4867 1.03242 2.80382 1.56956C4.49971 2.18506 4.62025 2.54382 4.90592 3.65654L8.01791 15.7216H12.1898L18.6166 0.271055H14.4545L10.3248 10.7759L8.63972 1.87115C8.48537 0.852058 7.70235 0.270562 6.7444 0.270562H0.109306L0.108816 0.271055ZM20.2904 0.271055L17.0256 15.7216H20.9946L24.2477 0.271055H20.2904ZM42.4267 0.271055C41.4697 0.271055 40.9626 0.786516 40.5907 1.68685L34.7758 15.7216H38.9379L39.743 13.3823H44.8135L45.303 15.7216H48.9755L45.7719 0.271055H42.4267ZM42.9681 4.4455L44.202 10.2432H40.8969L42.9686 4.4455H42.9681Z" fill="#1C5E59"/>
</g>
<defs>
<clipPath id="clip0_165_5615">
<rect width="49" height="16" fill="white"/>
</clipPath>
</defs>
</svg>
